<svg id="Calque_1" data-name="Calque 1" xmlns="http://www.w3.org/2000/svg" viewBox="0 0 1920.36 379.92"><path d="M995.11,366.69H-.18c11,26.13,47.3,103.31,135.06,155.6,92,54.82,181.68,47.21,209.15,43.81C390.6,557.34,479.1,547.38,581.71,579a491.52,491.52,0,0,1,150.08,76.59s82.15,77.81,181.94,89.55h0c.67.1,1.5.19,2.47.27a210.46,210.46,0,0,0,24.55,1.2h38.46c5.32.06,10.61-.1,15.86-.44h0c104.75-6.9,193.1-90.59,193.1-90.59A439.3,439.3,0,0,1,1338.29,579c95-27.1,175.78-15.11,216.29-6.16,32.76,4.29,90.52,7.34,156.31-14.88,12.14-4.1,42.41-13.18,74.23-35.65,72.61-51.29,135.06-155.6,135.06-155.6Z" transform="translate(0.18 -366.69)" style="fill:#1e2663"/></svg>