<svg id="Calque_1" data-name="Calque 1" xmlns="http://www.w3.org/2000/svg" xmlns:xlink="http://www.w3.org/1999/xlink" viewBox="0 0 190.49 43.55"><defs><linearGradient id="Dégradé_sans_nom_18" x1="24" y1="282.43" x2="29.19" y2="282.43" gradientTransform="matrix(-1, 0, 0, 1, 79.6, 0)" gradientUnits="userSpaceOnUse"><stop offset="0.41" stop-color="#f3f4f2"/><stop offset="1" stop-color="#5b5d7d"/></linearGradient><clipPath id="clip-path" transform="translate(-49.09 -258.11)"><path d="M102.57,276.6a36.16,36.16,0,0,1,4,.75,1.43,1.43,0,0,1,1.06,1.34c.14,4.91-.55,7.24-1.14,8.32a1.46,1.46,0,0,1-1.62.74,5.12,5.12,0,0,1-2.41-1.15C103.58,279.89,102.57,276.6,102.57,276.6Z" style="fill:none"/></clipPath><clipPath id="clip-path-2" transform="translate(-49.09 -258.11)"><path d="M96.18,271.13c.26,3.13-11.57-.47-17-.47s-18.38,3.31-17.92.23c1.21-8.1,11.71-11.43,17.09-11.43S95.54,263.43,96.18,271.13Z" style="fill:none"/></clipPath><clipPath id="clip-path-3" transform="translate(-49.09 -258.11)"><ellipse cx="78.99" cy="285.24" rx="18.83" ry="11.45" style="fill:none"/></clipPath><clipPath id="clip-path-4" transform="translate(-49.09 -258.11)"><ellipse cx="78.96" cy="282.56" rx="18.22" ry="10.61" style="fill:none"/></clipPath></defs><path d="M131.56,289.25c-.5.28-.89.51-1.17.7a6,6,0,0,0-.65.53l-.46.45a2.81,2.81,0,0,1-.56.46,10.23,10.23,0,0,1-1,.52c-.41.2-1,.43-1.7.7l-6.54-.79a11.83,11.83,0,0,1-.76-1.59c-.23-.59-.49-1.3-.77-2.12s-.61-1.75-1-2.81-.86-2.3-1.42-3.7l2.92-8.29,7.62-5.14,6.86.44c.06,0,.15.07.25.22a3.76,3.76,0,0,1,.31.49l.26.51a1.77,1.77,0,0,0,.15.27,2.84,2.84,0,0,1,.2.77c.06.36.12.77.18,1.24s.11,1,.17,1.46.12,1,.18,1.43l-5.93.47-.69-1.42c-.16-.34-.36-.51-.59-.51l-3.66,2.16-2.16,3.95L121.4,281l2.77,5.93a.57.57,0,0,1,.44.24.5.5,0,0,0,.44.22l3-2,.26-.56a2.75,2.75,0,0,0,.2-.73l0-.2a.77.77,0,0,0,0-.36,1.19,1.19,0,0,0-.12-.22c0-.08-.1-.19-.17-.33a2.61,2.61,0,0,1-.19-.61h-1.81l-.65.24a1,1,0,0,1-.11-.44c0-.26-.09-.58-.13-1s-.1-.77-.15-1.14-.09-.69-.12-1,0-.43,0-.47l0-.2.87,0,1.76-.06,1.25-.06,1.26,0,1.78,0,.47,0h.58l.38.59s0,.17.1.45.14.67.21,1.15.12,1.07.17,1.73a17.06,17.06,0,0,1,0,2.16.6.6,0,0,1,0,.23l-.09.47Z" transform="translate(-49.09 -258.11)" style="fill:#1e2663"/><path d="M145.23,285.15h-.79l-.95,0a5.37,5.37,0,0,0-.87.12,2,2,0,0,0-.66.26.6.6,0,0,0-.29.44l-.09.35-.23,4,0,.3c0,.11-.12.19-.3.23l-2.19.13c-.78.05-1.52.07-2.24.07h-.36l-.23,0-.14-.17.43-12.09.06-.47.12-.61.09-.35a1,1,0,0,1,.26-.38l.85-1c.35-.4.73-.83,1.15-1.28l1.27-1.39,1.2-1.32,1-1.05c.27-.29.46-.48.56-.58l.4-.42c.18-.19.29-.28.33-.28H151l3.48,7.12-.06.35s-.07.27-.22.75l-.57,1.84c-.23.75-.5,1.59-.8,2.52s-.6,1.88-.89,2.82-.57,1.85-.84,2.72-.48,1.6-.65,2.2c0,.1-.06.24-.11.41a1.44,1.44,0,0,1-.21.47c0,.23-.14.35-.3.35h-5.43l1.43-6Zm-2.69-4.34H143a19.38,19.38,0,0,0,2-.1l1.92-.22.65-.06a1.32,1.32,0,0,0,.64-.59,3.75,3.75,0,0,0,.29-.81l.12-.35-.24-1.75c-.07-.21-.18-.51-.3-.88a9.35,9.35,0,0,0-.46-1.09A5,5,0,0,0,147,274a.93.93,0,0,0-.73-.39h-.19a.13.13,0,0,0-.07.06.33.33,0,0,0-.05.12.42.42,0,0,1-.13.19c-.1.14-.28.36-.55.69s-.57.67-.89,1.05-.64.74-1,1.09l-.73.82-.15.15a1.05,1.05,0,0,0-.16.24.67.67,0,0,0-.1.28l-.12,2.28C142.19,280.75,142.31,280.81,142.54,280.81Z" transform="translate(-49.09 -258.11)" style="fill:#1e2663"/><path d="M155.54,277.75a22.18,22.18,0,0,1,1.05-3.87c.47-1.28,1-2.56,1.61-3.84a7.71,7.71,0,0,1,2.36-.35h3.07a1.26,1.26,0,0,1,.27.32,1.77,1.77,0,0,1,.19.35l3.57,6.34s0,0,0,.08a.25.25,0,0,0,.13.09l.06,0,.15,0a.3.3,0,0,0,.23-.17l2.75-7.19.73,0c.81,0,1.58,0,2.3.06l2.31.15-.18,1.05L172,281.25a.82.82,0,0,1,0,.18l-.06.23-1.17,9.17-5.78.38-.53-7.1-.14-.35c-.33-.74-.62-1.35-.85-1.84s-.47-1-.71-1.44a7.25,7.25,0,0,0-.63-1s0-.1-.15-.17a2.23,2.23,0,0,1-.2-.18s0,0-.08,0l-.1,0L161,284c-.1.5-.21,1.06-.32,1.68s-.26,1.24-.43,1.88a18.49,18.49,0,0,1-.58,1.87,8.5,8.5,0,0,1-.77,1.6,16.55,16.55,0,0,1-2.08.19c-.74,0-1.46,0-2.16,0h-1.28l2-5.84Z" transform="translate(-49.09 -258.11)" style="fill:#1e2663"/><path d="M184.71,285.15h-.79l-.95,0a5.37,5.37,0,0,0-.87.12,2.22,2.22,0,0,0-.66.26.63.63,0,0,0-.29.44l-.09.35-.23,4,0,.3c0,.11-.12.19-.29.23l-2.19.13c-.78.05-1.53.07-2.25.07h-.35l-.24,0-.14-.17.44-12.09.05-.47.12-.61.09-.35a1,1,0,0,1,.26-.38l.85-1c.35-.4.73-.83,1.15-1.28l1.27-1.39,1.2-1.32,1-1.05.56-.58.41-.42c.17-.19.28-.28.32-.28h7.44l3.48,7.12-.06.35s-.07.27-.22.75-.33,1.09-.57,1.84-.5,1.59-.8,2.52-.6,1.88-.89,2.82-.57,1.85-.83,2.72-.49,1.6-.66,2.2c0,.1,0,.24-.1.41a1.45,1.45,0,0,1-.22.47c0,.23-.14.35-.29.35h-5.44l1.44-6ZM182,280.81h.41a19.24,19.24,0,0,0,2-.1l1.93-.22.64-.06a1.32,1.32,0,0,0,.64-.59A3.29,3.29,0,0,0,188,279l.12-.35-.23-1.75c-.08-.21-.18-.51-.31-.88a11.37,11.37,0,0,0-.45-1.09,5,5,0,0,0-.59-.94.92.92,0,0,0-.73-.39h-.19a.13.13,0,0,0-.07.06.34.34,0,0,0,0,.12.47.47,0,0,1-.14.19c-.09.14-.28.36-.55.69l-.89,1.05c-.32.38-.64.74-.95,1.09s-.55.63-.73.82l-.15.15a1.05,1.05,0,0,0-.16.24.86.86,0,0,0-.1.28l-.12,2.28C181.67,280.75,181.79,280.81,182,280.81Z" transform="translate(-49.09 -258.11)" style="fill:#1e2663"/><path d="M192.65,289.4l.88-1.58c.06-.09.15-.27.28-.52s.26-.52.41-.79.27-.53.39-.78a4.06,4.06,0,0,0,.23-.51h.82l6.86,1.38h.33a.92.92,0,0,0,.36-.05.41.41,0,0,0,.19-.3l0-.17c0-.16,0-.42,0-.79s0-.76,0-1.18,0-.81-.05-1.17,0-.62,0-.77a1.58,1.58,0,0,0-.86-1.08,7.54,7.54,0,0,0-1.56-.5l-5.78-2.69a.21.21,0,0,1-.18-.17l0-.18.91-1.4c.13-.19.41-.55.83-1.07s.87-1.06,1.34-1.65.94-1.12,1.38-1.63.74-.86.92-1.05c.77-.84,1.23-1.26,1.37-1.26l10.89.32-.09.44-1.9,3.94-6.36-.76a4.12,4.12,0,0,0-.7.54,6.51,6.51,0,0,0-.63.68l-.48.58c-.14.17-.22.25-.24.25l0,.32,7.06,3.65.3,8-.09.64a1.79,1.79,0,0,1-.15.37c-.06.11-.2.18-.44.22s-.6.25-1.16.47l-1.81.67-1.83.67-1.21.44a5.44,5.44,0,0,1-.66.27,1.42,1.42,0,0,1-.45.08h-1.26l-7.24-1.4-.53-.08c-.07,0-.09-.09-.05-.25Z" transform="translate(-49.09 -258.11)" style="fill:#1e2663"/><path d="M212.12,290.06c.1-.23.22-.45.33-.68s.23-.45.33-.68a5.28,5.28,0,0,0,.23-.79l.06-.26a9.19,9.19,0,0,0,.07-2.24c-.07-.79-.16-1.58-.28-2.39s-.21-1.61-.27-2.4a8.39,8.39,0,0,1,.07-2.2l.12-.44,3.15-8.26.2-.18,5.58-.17c.16,0,.24,0,.26.13a.5.5,0,0,1,0,.27.67.67,0,0,1,0,.17.53.53,0,0,0,0,.13l-3.16,8.2.76,5.64v.23a.61.61,0,0,1,0,.27,9.3,9.3,0,0,1-.23,1c-.12.43-.26.89-.42,1.4s-.34,1-.52,1.53-.34,1-.49,1.42-.29.77-.4,1a1.18,1.18,0,0,1-.19.39H212.4c-.3,0-.47,0-.52-.09a.47.47,0,0,1,0-.32A4.56,4.56,0,0,1,212.12,290.06Z" transform="translate(-49.09 -258.11)" style="fill:#1e2663"/><path d="M219.67,289.4l.87-1.58c.06-.09.15-.27.28-.52s.26-.52.41-.79.28-.53.39-.78.2-.41.24-.51h.81l6.87,1.38h.32a.89.89,0,0,0,.36-.05.41.41,0,0,0,.19-.3l0-.17c0-.16,0-.42,0-.79s0-.76,0-1.18,0-.81,0-1.17,0-.62,0-.77a1.63,1.63,0,0,0-.86-1.08,7.46,7.46,0,0,0-1.57-.5l-5.78-2.69a.19.19,0,0,1-.17-.17l0-.18.91-1.4c.14-.19.41-.55.83-1.07l1.35-1.65c.47-.58.93-1.12,1.37-1.63s.74-.86.92-1.05c.78-.84,1.23-1.26,1.37-1.26l10.89.32-.08.44-1.9,3.94-6.37-.76a4.12,4.12,0,0,0-.7.54c-.23.23-.44.45-.63.68l-.48.58c-.14.17-.21.25-.23.25l-.06.32,7.07,3.65.29,8-.09.64a1.79,1.79,0,0,1-.15.37c-.05.11-.2.18-.43.22s-.61.25-1.17.47l-1.81.67-1.83.67-1.21.44a5.44,5.44,0,0,1-.66.27,1.33,1.33,0,0,1-.45.08h-1.25l-7.25-1.4-.52-.08c-.08,0-.1-.09-.06-.25A1.16,1.16,0,0,1,219.67,289.4Z" transform="translate(-49.09 -258.11)" style="fill:#1e2663"/><path d="M131.56,289.25c-.5.28-.89.51-1.17.7a6,6,0,0,0-.65.53l-.46.45a2.81,2.81,0,0,1-.56.46,10.23,10.23,0,0,1-1,.52c-.41.2-1,.43-1.7.7l-6.54-.79a11.83,11.83,0,0,1-.76-1.59c-.23-.59-.49-1.3-.77-2.12s-.61-1.75-1-2.81-.86-2.3-1.42-3.7l2.92-8.29,7.62-5.14,6.86.44c.06,0,.15.07.25.22a3.76,3.76,0,0,1,.31.49l.26.51a1.77,1.77,0,0,0,.15.27,2.84,2.84,0,0,1,.2.77c.06.36.12.77.18,1.24s.11,1,.17,1.46.12,1,.18,1.43l-5.93.47-.69-1.42c-.16-.34-.36-.51-.59-.51l-3.66,2.16-2.16,3.95L121.4,281l2.77,5.93a.57.57,0,0,1,.44.24.5.5,0,0,0,.44.22l3-2,.26-.56a2.75,2.75,0,0,0,.2-.73l0-.2a.77.77,0,0,0,0-.36,1.19,1.19,0,0,0-.12-.22c0-.08-.1-.19-.17-.33a2.61,2.61,0,0,1-.19-.61h-1.81l-.65.24a1,1,0,0,1-.11-.44c0-.26-.09-.58-.13-1s-.1-.77-.15-1.14-.09-.69-.12-1,0-.43,0-.47l0-.2.87,0,1.76-.06,1.25-.06,1.26,0,1.78,0,.47,0h.58l.38.59s0,.17.1.45.14.67.21,1.15.12,1.07.17,1.73a17.06,17.06,0,0,1,0,2.16.6.6,0,0,1,0,.23l-.09.47Z" transform="translate(-49.09 -258.11)" style="fill:#373737"/><path d="M145.23,285.15h-.79l-.95,0a5.37,5.37,0,0,0-.87.12,2,2,0,0,0-.66.26.6.6,0,0,0-.29.44l-.09.35-.23,4,0,.3c0,.11-.12.19-.3.23l-2.19.13c-.78.05-1.52.07-2.24.07h-.36l-.23,0-.14-.17.43-12.09.06-.47.12-.61.09-.35a1,1,0,0,1,.26-.38l.85-1c.35-.4.73-.83,1.15-1.28l1.27-1.39,1.2-1.32,1-1.05c.27-.29.46-.48.56-.58l.4-.42c.18-.19.29-.28.33-.28H151l3.48,7.12-.06.35s-.07.27-.22.75l-.57,1.84c-.23.75-.5,1.59-.8,2.52s-.6,1.88-.89,2.82-.57,1.85-.84,2.72-.48,1.6-.65,2.2c0,.1-.06.24-.11.41a1.44,1.44,0,0,1-.21.47c0,.23-.14.35-.3.35h-5.43l1.43-6Zm-2.69-4.34H143a19.38,19.38,0,0,0,2-.1l1.92-.22.65-.06a1.32,1.32,0,0,0,.64-.59,3.75,3.75,0,0,0,.29-.81l.12-.35-.24-1.75c-.07-.21-.18-.51-.3-.88a9.35,9.35,0,0,0-.46-1.09A5,5,0,0,0,147,274a.93.93,0,0,0-.73-.39h-.19a.13.13,0,0,0-.07.06.33.33,0,0,0-.05.12.42.42,0,0,1-.13.19c-.1.14-.28.36-.55.69s-.57.67-.89,1.05-.64.74-1,1.09l-.73.82-.15.15a1.05,1.05,0,0,0-.16.24.67.67,0,0,0-.1.28l-.12,2.28C142.19,280.75,142.31,280.81,142.54,280.81Z" transform="translate(-49.09 -258.11)" style="fill:#373737"/><path d="M155.54,277.75a22.18,22.18,0,0,1,1.05-3.87c.47-1.28,1-2.56,1.61-3.84a7.71,7.71,0,0,1,2.36-.35h3.07a1.26,1.26,0,0,1,.27.32,1.77,1.77,0,0,1,.19.35l3.57,6.34s0,0,0,.08a.25.25,0,0,0,.13.09l.06,0,.15,0a.3.3,0,0,0,.23-.17l2.75-7.19.73,0c.81,0,1.58,0,2.3.06l2.31.15-.18,1.05L172,281.25a.82.82,0,0,1,0,.18l-.06.23-1.17,9.17-5.78.38-.53-7.1-.14-.35c-.33-.74-.62-1.35-.85-1.84s-.47-1-.71-1.44a7.25,7.25,0,0,0-.63-1s0-.1-.15-.17a2.23,2.23,0,0,1-.2-.18s0,0-.08,0l-.1,0L161,284c-.1.5-.21,1.06-.32,1.68s-.26,1.24-.43,1.88a18.49,18.49,0,0,1-.58,1.87,8.5,8.5,0,0,1-.77,1.6,16.55,16.55,0,0,1-2.08.19c-.74,0-1.46,0-2.16,0h-1.28l2-5.84Z" transform="translate(-49.09 -258.11)" style="fill:#373737"/><path d="M184.71,285.15h-.79l-.95,0a5.37,5.37,0,0,0-.87.12,2.22,2.22,0,0,0-.66.26.63.63,0,0,0-.29.44l-.09.35-.23,4,0,.3c0,.11-.12.19-.29.23l-2.19.13c-.78.05-1.53.07-2.25.07h-.35l-.24,0-.14-.17.44-12.09.05-.47.12-.61.09-.35a1,1,0,0,1,.26-.38l.85-1c.35-.4.73-.83,1.15-1.28l1.27-1.39,1.2-1.32,1-1.05.56-.58.41-.42c.17-.19.28-.28.32-.28h7.44l3.48,7.12-.06.35s-.07.27-.22.75-.33,1.09-.57,1.84-.5,1.59-.8,2.52-.6,1.88-.89,2.82-.57,1.85-.83,2.72-.49,1.6-.66,2.2c0,.1,0,.24-.1.41a1.45,1.45,0,0,1-.22.47c0,.23-.14.35-.29.35h-5.44l1.44-6ZM182,280.81h.41a19.24,19.24,0,0,0,2-.1l1.93-.22.64-.06a1.32,1.32,0,0,0,.64-.59A3.29,3.29,0,0,0,188,279l.12-.35-.23-1.75c-.08-.21-.18-.51-.31-.88a11.37,11.37,0,0,0-.45-1.09,5,5,0,0,0-.59-.94.92.92,0,0,0-.73-.39h-.19a.13.13,0,0,0-.07.06.34.34,0,0,0,0,.12.47.47,0,0,1-.14.19c-.09.14-.28.36-.55.69l-.89,1.05c-.32.38-.64.74-.95,1.09s-.55.63-.73.82l-.15.15a1.05,1.05,0,0,0-.16.24.86.86,0,0,0-.1.28l-.12,2.28C181.67,280.75,181.79,280.81,182,280.81Z" transform="translate(-49.09 -258.11)" style="fill:#373737"/><path d="M192.65,289.4l.88-1.58c.06-.09.15-.27.28-.52s.26-.52.41-.79.27-.53.39-.78a4.06,4.06,0,0,0,.23-.51h.82l6.86,1.38h.33a.92.92,0,0,0,.36-.05.41.41,0,0,0,.19-.3l0-.17c0-.16,0-.42,0-.79s0-.76,0-1.18,0-.81-.05-1.17,0-.62,0-.77a1.58,1.58,0,0,0-.86-1.08,7.54,7.54,0,0,0-1.56-.5l-5.78-2.69a.21.21,0,0,1-.18-.17l0-.18.91-1.4c.13-.19.41-.55.83-1.07s.87-1.06,1.34-1.65.94-1.12,1.38-1.63.74-.86.92-1.05c.77-.84,1.23-1.26,1.37-1.26l10.89.32-.09.44-1.9,3.94-6.36-.76a4.12,4.12,0,0,0-.7.54,6.51,6.51,0,0,0-.63.68l-.48.58c-.14.17-.22.25-.24.25l0,.32,7.06,3.65.3,8-.09.64a1.79,1.79,0,0,1-.15.37c-.06.11-.2.18-.44.22s-.6.25-1.16.47l-1.81.67-1.83.67-1.21.44a5.44,5.44,0,0,1-.66.27,1.42,1.42,0,0,1-.45.08h-1.26l-7.24-1.4-.53-.08c-.07,0-.09-.09-.05-.25Z" transform="translate(-49.09 -258.11)" style="fill:#373737"/><path d="M212.12,290.06c.1-.23.22-.45.33-.68s.23-.45.33-.68a5.28,5.28,0,0,0,.23-.79l.06-.26a9.19,9.19,0,0,0,.07-2.24c-.07-.79-.16-1.58-.28-2.39s-.21-1.61-.27-2.4a8.39,8.39,0,0,1,.07-2.2l.12-.44,3.15-8.26.2-.18,5.58-.17c.16,0,.24,0,.26.13a.5.5,0,0,1,0,.27.67.67,0,0,1,0,.17.53.53,0,0,0,0,.13l-3.16,8.2.76,5.64v.23a.61.61,0,0,1,0,.27,9.3,9.3,0,0,1-.23,1c-.12.43-.26.89-.42,1.4s-.34,1-.52,1.53-.34,1-.49,1.42-.29.77-.4,1a1.18,1.18,0,0,1-.19.39H212.4c-.3,0-.47,0-.52-.09a.47.47,0,0,1,0-.32A4.56,4.56,0,0,1,212.12,290.06Z" transform="translate(-49.09 -258.11)" style="fill:#373737"/><path d="M219.67,289.4l.87-1.58c.06-.09.15-.27.28-.52s.26-.52.41-.79.28-.53.39-.78.2-.41.24-.51h.81l6.87,1.38h.32a.89.89,0,0,0,.36-.05.41.41,0,0,0,.19-.3l0-.17c0-.16,0-.42,0-.79s0-.76,0-1.18,0-.81,0-1.17,0-.62,0-.77a1.63,1.63,0,0,0-.86-1.08,7.46,7.46,0,0,0-1.57-.5l-5.78-2.69a.19.19,0,0,1-.17-.17l0-.18.91-1.4c.14-.19.41-.55.83-1.07l1.35-1.65c.47-.58.93-1.12,1.37-1.63s.74-.86.92-1.05c.78-.84,1.23-1.26,1.37-1.26l10.89.32-.08.44-1.9,3.94-6.37-.76a4.12,4.12,0,0,0-.7.54c-.23.23-.44.45-.63.68l-.48.58c-.14.17-.21.25-.23.25l-.06.32,7.07,3.65.29,8-.09.64a1.79,1.79,0,0,1-.15.37c-.05.11-.2.18-.43.22s-.61.25-1.17.47l-1.81.67-1.83.67-1.21.44a5.44,5.44,0,0,1-.66.27,1.33,1.33,0,0,1-.45.08h-1.25l-7.25-1.4-.52-.08c-.08,0-.1-.09-.06-.25A1.16,1.16,0,0,1,219.67,289.4Z" transform="translate(-49.09 -258.11)" style="fill:#373737"/><path d="M55.47,276.83a39.82,39.82,0,0,0-4,.75,1.45,1.45,0,0,0-1,1.34c-.15,4.91.55,7.25,1.13,8.33a1.47,1.47,0,0,0,1.63.74,5.18,5.18,0,0,0,2.41-1.16C54.46,280.12,55.47,276.83,55.47,276.83Z" transform="translate(-49.09 -258.11)" style="fill:url(#Dégradé_sans_nom_18)"/><ellipse cx="29.9" cy="21.93" rx="23.31" ry="20.56" style="fill:#4e666e"/><path d="M53.09,288.62a4.58,4.58,0,0,1-.64,0,2.85,2.85,0,0,1-2.28-1.71c-.63-1.44-1.31-4.06-1-8.36A2.65,2.65,0,0,1,51,276.18c1-.3,2.54-.7,4.63-1.19l1.92-.46-.47,1.92c0,.05-1.31,5.43,0,10l.28,1-1,.42A9.41,9.41,0,0,1,53.09,288.62Zm1.34-10.86c-1.41.35-2.23.58-2.7.72a.24.24,0,0,0-.16.21c-.29,4,.38,6.24.8,7.22a.48.48,0,0,0,.35.29,5.33,5.33,0,0,0,1.8-.19A24.63,24.63,0,0,1,54.43,277.76Z" transform="translate(-49.09 -258.11)" style="fill:#373737"/><g style="clip-path:url(#clip-path)"><rect x="53.35" y="18.48" width="2.11" height="11.31" style="fill:#f3f4f2"/><rect x="55.45" y="18.48" width="0.02" height="11.31" style="fill:#f3f4f2"/><rect x="55.47" y="18.48" width="0.02" height="11.31" style="fill:#f2f3f1"/><rect x="55.49" y="18.48" width="0.02" height="11.31" style="fill:#f1f2f0"/><rect x="55.51" y="18.48" width="0.02" height="11.31" style="fill:#f0f1f0"/><rect x="55.53" y="18.48" width="0.02" height="11.31" style="fill:#eff0ef"/><rect x="55.55" y="18.48" width="0.02" height="11.31" style="fill:#eeefee"/><rect x="55.57" y="18.48" width="0.02" height="11.31" style="fill:#edeeed"/><rect x="55.59" y="18.48" width="0.02" height="11.31" style="fill:#eceded"/><rect x="55.61" y="18.48" width="0.02" height="11.31" style="fill:#ebecec"/><rect x="55.63" y="18.48" width="0.02" height="11.31" style="fill:#eaebeb"/><rect x="55.65" y="18.48" width="0.02" height="11.31" style="fill:#e9eaea"/><rect x="55.67" y="18.48" width="0.02" height="11.31" style="fill:#e8e9e9"/><rect x="55.69" y="18.48" width="0.02" height="11.31" style="fill:#e7e8e9"/><rect x="55.71" y="18.48" width="0.02" height="11.31" style="fill:#e6e7e8"/><rect x="55.73" y="18.48" width="0.02" height="11.31" style="fill:#e5e6e7"/><rect x="55.75" y="18.48" width="0.02" height="11.31" style="fill:#e4e5e6"/><rect x="55.78" y="18.48" width="0.02" height="11.31" style="fill:#e3e4e6"/><rect x="55.8" y="18.48" width="0.02" height="11.31" style="fill:#e2e3e5"/><rect x="55.82" y="18.48" width="0.02" height="11.31" style="fill:#e1e2e4"/><rect x="55.84" y="18.48" width="0.02" height="11.31" style="fill:#e0e1e3"/><rect x="55.86" y="18.48" width="0.02" height="11.31" style="fill:#dfe0e3"/><rect x="55.88" y="18.48" width="0.02" height="11.31" style="fill:#dedfe2"/><rect x="55.9" y="18.48" width="0.02" height="11.31" style="fill:#dddee1"/><rect x="55.92" y="18.48" width="0.02" height="11.31" style="fill:#dcdde0"/><rect x="55.94" y="18.48" width="0.02" height="11.31" style="fill:#dbdcdf"/><rect x="55.96" y="18.48" width="0.02" height="11.31" style="fill:#dadbdf"/><rect x="55.98" y="18.48" width="0.02" height="11.31" style="fill:#d9dade"/><rect x="56" y="18.48" width="0.02" height="11.31" style="fill:#d8d9dd"/><rect x="56.02" y="18.48" width="0.02" height="11.31" style="fill:#d7d8dc"/><rect x="56.04" y="18.48" width="0.02" height="11.31" style="fill:#d6d7dc"/><rect x="56.06" y="18.48" width="0.02" height="11.31" style="fill:#d5d6db"/><rect x="56.08" y="18.48" width="0.02" height="11.31" style="fill:#d4d5da"/><rect x="56.1" y="18.48" width="0.02" height="11.31" style="fill:#d3d4d9"/><rect x="56.12" y="18.48" width="0.02" height="11.31" style="fill:#d2d3d8"/><rect x="56.14" y="18.48" width="0.02" height="11.31" style="fill:#d1d2d8"/><rect x="56.16" y="18.48" width="0.02" height="11.31" style="fill:#d0d1d7"/><rect x="56.18" y="18.48" width="0.02" height="11.31" style="fill:#cfd0d6"/><rect x="56.2" y="18.48" width="0.02" height="11.31" style="fill:#cecfd5"/><rect x="56.22" y="18.48" width="0.02" height="11.31" style="fill:#cdced5"/><rect x="56.24" y="18.48" width="0.02" height="11.31" style="fill:#cccdd4"/><rect x="56.26" y="18.48" width="0.02" height="11.31" style="fill:#cbccd3"/><rect x="56.28" y="18.48" width="0.02" height="11.31" style="fill:#cacbd2"/><rect x="56.3" y="18.48" width="0.02" height="11.31" style="fill:#c9cad1"/><rect x="56.32" y="18.48" width="0.02" height="11.31" style="fill:#c8c9d1"/><rect x="56.34" y="18.48" width="0.02" height="11.31" style="fill:#c7c8d0"/><rect x="56.36" y="18.48" width="0.02" height="11.31" style="fill:#c6c7cf"/><rect x="56.38" y="18.48" width="0.02" height="11.31" style="fill:#c5c6ce"/><rect x="56.4" y="18.48" width="0.02" height="11.31" style="fill:#c4c5ce"/><rect x="56.42" y="18.48" width="0.02" height="11.31" style="fill:#c3c4cd"/><rect x="56.44" y="18.48" width="0.02" height="11.31" style="fill:#c2c3cc"/><rect x="56.46" y="18.48" width="0.02" height="11.31" style="fill:#c1c2cb"/><rect x="56.48" y="18.48" width="0.02" height="11.31" style="fill:#c0c1ca"/><rect x="56.51" y="18.48" width="0.02" height="11.31" style="fill:#bfc0ca"/><rect x="56.53" y="18.48" width="0.02" height="11.31" style="fill:#bebfc9"/><rect x="56.55" y="18.48" width="0.02" height="11.31" style="fill:#bdbec8"/><rect x="56.57" y="18.48" width="0.02" height="11.31" style="fill:#bcbdc7"/><rect x="56.59" y="18.48" width="0.02" height="11.31" style="fill:#bbbcc7"/><rect x="56.61" y="18.48" width="0.02" height="11.31" style="fill:#babbc6"/><rect x="56.63" y="18.48" width="0.02" height="11.31" style="fill:#b9bac5"/><rect x="56.65" y="18.48" width="0.02" height="11.31" style="fill:#b8b9c4"/><rect x="56.67" y="18.48" width="0.02" height="11.31" style="fill:#b7b8c4"/><rect x="56.69" y="18.48" width="0.02" height="11.31" style="fill:#b6b7c3"/><rect x="56.71" y="18.48" width="0.02" height="11.31" style="fill:#b5b6c2"/><rect x="56.73" y="18.48" width="0.02" height="11.31" style="fill:#b4b5c1"/><rect x="56.75" y="18.48" width="0.02" height="11.31" style="fill:#b3b4c0"/><rect x="56.77" y="18.48" width="0.02" height="11.31" style="fill:#b2b3c0"/><rect x="56.79" y="18.48" width="0.02" height="11.31" style="fill:#b1b2bf"/><rect x="56.81" y="18.48" width="0.02" height="11.31" style="fill:#b0b1be"/><rect x="56.83" y="18.48" width="0.02" height="11.31" style="fill:#afb0bd"/><rect x="56.85" y="18.48" width="0.02" height="11.31" style="fill:#aeafbd"/><rect x="56.87" y="18.48" width="0.02" height="11.31" style="fill:#adaebc"/><rect x="56.89" y="18.48" width="0.02" height="11.31" style="fill:#acadbb"/><rect x="56.91" y="18.48" width="0.02" height="11.31" style="fill:#abacba"/><rect x="56.93" y="18.48" width="0.02" height="11.31" style="fill:#aaabb9"/><rect x="56.95" y="18.48" width="0.02" height="11.31" style="fill:#a9aab9"/><rect x="56.97" y="18.48" width="0.02" height="11.31" style="fill:#a8a9b8"/><rect x="56.99" y="18.48" width="0.02" height="11.31" style="fill:#a6a8b7"/><rect x="57.01" y="18.48" width="0.02" height="11.31" style="fill:#a5a7b6"/><rect x="57.03" y="18.48" width="0.02" height="11.31" style="fill:#a4a6b6"/><rect x="57.05" y="18.48" width="0.02" height="11.31" style="fill:#a3a5b5"/><rect x="57.07" y="18.48" width="0.02" height="11.31" style="fill:#a2a4b4"/><rect x="57.09" y="18.48" width="0.02" height="11.31" style="fill:#a1a3b3"/><rect x="57.11" y="18.48" width="0.02" height="11.31" style="fill:#a0a2b2"/><rect x="57.13" y="18.48" width="0.02" height="11.31" style="fill:#9fa1b2"/><rect x="57.15" y="18.48" width="0.02" height="11.31" style="fill:#9ea0b1"/><rect x="57.17" y="18.48" width="0.02" height="11.31" style="fill:#9d9fb0"/><rect x="57.19" y="18.48" width="0.02" height="11.31" style="fill:#9c9eaf"/><rect x="57.21" y="18.48" width="0.02" height="11.31" style="fill:#9b9daf"/><rect x="57.24" y="18.48" width="0.02" height="11.31" style="fill:#9a9cae"/><rect x="57.26" y="18.48" width="0.02" height="11.31" style="fill:#999bad"/><rect x="57.28" y="18.48" width="0.02" height="11.31" style="fill:#989aac"/><rect x="57.3" y="18.48" width="0.02" height="11.31" style="fill:#9799ab"/><rect x="57.32" y="18.48" width="0.02" height="11.31" style="fill:#9698ab"/><rect x="57.34" y="18.48" width="0.02" height="11.31" style="fill:#9597aa"/><rect x="57.36" y="18.48" width="0.02" height="11.31" style="fill:#9496a9"/><rect x="57.38" y="18.48" width="0.02" height="11.31" style="fill:#9395a8"/><rect x="57.4" y="18.48" width="0.02" height="11.31" style="fill:#9294a8"/><rect x="57.42" y="18.48" width="0.02" height="11.31" style="fill:#9193a7"/><rect x="57.44" y="18.48" width="0.02" height="11.31" style="fill:#9092a6"/><rect x="57.46" y="18.48" width="0.02" height="11.31" style="fill:#8f91a5"/><rect x="57.48" y="18.48" width="0.02" height="11.31" style="fill:#8e90a5"/><rect x="57.5" y="18.48" width="0.02" height="11.31" style="fill:#8d8fa4"/><rect x="57.52" y="18.48" width="0.02" height="11.31" style="fill:#8c8ea3"/><rect x="57.54" y="18.48" width="0.02" height="11.31" style="fill:#8b8da2"/><rect x="57.56" y="18.48" width="0.02" height="11.31" style="fill:#8a8ca1"/><rect x="57.58" y="18.48" width="0.02" height="11.31" style="fill:#898ba1"/><rect x="57.6" y="18.48" width="0.02" height="11.31" style="fill:#888aa0"/><rect x="57.62" y="18.48" width="0.02" height="11.31" style="fill:#87899f"/><rect x="57.64" y="18.48" width="0.02" height="11.31" style="fill:#86889e"/><rect x="57.66" y="18.48" width="0.02" height="11.31" style="fill:#85879e"/><rect x="57.68" y="18.48" width="0.02" height="11.31" style="fill:#84869d"/><rect x="57.7" y="18.48" width="0.02" height="11.31" style="fill:#83859c"/><rect x="57.72" y="18.48" width="0.02" height="11.31" style="fill:#82849b"/><rect x="57.74" y="18.48" width="0.02" height="11.31" style="fill:#81839a"/><rect x="57.76" y="18.48" width="0.02" height="11.31" style="fill:#80829a"/><rect x="57.78" y="18.48" width="0.02" height="11.31" style="fill:#7f8199"/><rect x="57.8" y="18.48" width="0.02" height="11.31" style="fill:#7e8098"/><rect x="57.82" y="18.48" width="0.02" height="11.31" style="fill:#7d7f97"/><rect x="57.84" y="18.48" width="0.02" height="11.31" style="fill:#7c7e97"/><rect x="57.86" y="18.48" width="0.02" height="11.31" style="fill:#7b7d96"/><rect x="57.88" y="18.48" width="0.02" height="11.31" style="fill:#7a7c95"/><rect x="57.9" y="18.48" width="0.02" height="11.31" style="fill:#797b94"/><rect x="57.92" y="18.48" width="0.02" height="11.31" style="fill:#787a93"/><rect x="57.94" y="18.48" width="0.02" height="11.31" style="fill:#777993"/><rect x="57.97" y="18.48" width="0.02" height="11.31" style="fill:#767892"/><rect x="57.99" y="18.48" width="0.02" height="11.31" style="fill:#757791"/><rect x="58.01" y="18.48" width="0.02" height="11.31" style="fill:#747690"/><rect x="58.03" y="18.48" width="0.02" height="11.31" style="fill:#737590"/><rect x="58.05" y="18.48" width="0.02" height="11.31" style="fill:#72748f"/><rect x="58.07" y="18.48" width="0.02" height="11.31" style="fill:#71738e"/><rect x="58.09" y="18.48" width="0.02" height="11.31" style="fill:#70728d"/><rect x="58.11" y="18.48" width="0.02" height="11.31" style="fill:#6f718c"/><rect x="58.13" y="18.48" width="0.02" height="11.31" style="fill:#6e708c"/><rect x="58.15" y="18.48" width="0.02" height="11.31" style="fill:#6d6f8b"/><rect x="58.17" y="18.48" width="0.02" height="11.31" style="fill:#6c6e8a"/><rect x="58.19" y="18.48" width="0.02" height="11.31" style="fill:#6b6d89"/><rect x="58.21" y="18.48" width="0.02" height="11.31" style="fill:#6a6c89"/><rect x="58.23" y="18.48" width="0.02" height="11.31" style="fill:#696b88"/><rect x="58.25" y="18.48" width="0.02" height="11.31" style="fill:#686a87"/><rect x="58.27" y="18.48" width="0.02" height="11.31" style="fill:#676986"/><rect x="58.29" y="18.48" width="0.02" height="11.31" style="fill:#666886"/><rect x="58.31" y="18.48" width="0.02" height="11.31" style="fill:#656785"/><rect x="58.33" y="18.48" width="0.02" height="11.31" style="fill:#646684"/><rect x="58.35" y="18.48" width="0.02" height="11.31" style="fill:#636583"/><rect x="58.37" y="18.48" width="0.02" height="11.31" style="fill:#626482"/><rect x="58.39" y="18.48" width="0.02" height="11.31" style="fill:#616382"/><rect x="58.41" y="18.48" width="0.02" height="11.31" style="fill:#606281"/><rect x="58.43" y="18.48" width="0.02" height="11.31" style="fill:#5f6180"/><rect x="58.45" y="18.48" width="0.02" height="11.31" style="fill:#5e607f"/><rect x="58.47" y="18.48" width="0.02" height="11.31" style="fill:#5d5f7f"/><rect x="58.49" y="18.48" width="0.02" height="11.31" style="fill:#5c5e7e"/><rect x="58.51" y="18.48" width="0.02" height="11.31" style="fill:#5b5d7d"/><rect x="58.53" y="18.48" width="0.12" height="11.31" style="fill:#5b5d7d"/></g><g style="clip-path:url(#clip-path-2)"><rect x="11.76" y="14.29" width="35.59" height="1.85" style="fill:#f3f4f2"/><rect x="11.76" y="14.17" width="35.59" height="0.12" style="fill:#f3f4f2"/><rect x="11.76" y="14.06" width="35.59" height="0.12" style="fill:#f2f3f1"/><rect x="11.76" y="13.94" width="35.59" height="0.12" style="fill:#f1f2f0"/><rect x="11.76" y="13.82" width="35.59" height="0.12" style="fill:#f0f1f0"/><rect x="11.76" y="13.7" width="35.59" height="0.12" style="fill:#eff0ef"/><rect x="11.76" y="13.59" width="35.59" height="0.12" style="fill:#eeefee"/><rect x="11.76" y="13.47" width="35.59" height="0.12" style="fill:#edeeed"/><rect x="11.76" y="13.35" width="35.59" height="0.12" style="fill:#eceded"/><rect x="11.76" y="13.23" width="35.59" height="0.12" style="fill:#ebecec"/><rect x="11.76" y="13.12" width="35.59" height="0.12" style="fill:#eaebeb"/><rect x="11.76" y="13" width="35.59" height="0.12" style="fill:#e9eaea"/><rect x="11.76" y="12.88" width="35.59" height="0.12" style="fill:#e8e9e9"/><rect x="11.76" y="12.76" width="35.59" height="0.12" style="fill:#e7e8e9"/><rect x="11.76" y="12.64" width="35.59" height="0.12" style="fill:#e6e7e8"/><rect x="11.76" y="12.53" width="35.59" height="0.12" style="fill:#e5e6e7"/><rect x="11.76" y="12.41" width="35.59" height="0.12" style="fill:#e4e5e6"/><rect x="11.76" y="12.29" width="35.59" height="0.12" style="fill:#e3e4e6"/><rect x="11.76" y="12.17" width="35.59" height="0.12" style="fill:#e2e3e5"/><rect x="11.76" y="12.06" width="35.59" height="0.12" style="fill:#e1e2e4"/><rect x="11.76" y="11.94" width="35.59" height="0.12" style="fill:#e0e1e3"/><rect x="11.76" y="11.82" width="35.59" height="0.12" style="fill:#dfe0e2"/><rect x="11.76" y="11.7" width="35.59" height="0.12" style="fill:#dedfe2"/><rect x="11.76" y="11.59" width="35.59" height="0.12" style="fill:#dddee1"/><rect x="11.76" y="11.47" width="35.59" height="0.12" style="fill:#dcdde0"/><rect x="11.76" y="11.35" width="35.59" height="0.12" style="fill:#dbdcdf"/><rect x="11.76" y="11.23" width="35.59" height="0.12" style="fill:#dadbdf"/><rect x="11.76" y="11.12" width="35.59" height="0.12" style="fill:#d9dade"/><rect x="11.76" y="11" width="35.59" height="0.12" style="fill:#d8d9dd"/><rect x="11.76" y="10.88" width="35.59" height="0.12" style="fill:#d7d8dc"/><rect x="11.76" y="10.76" width="35.59" height="0.12" style="fill:#d6d7db"/><rect x="11.76" y="10.64" width="35.59" height="0.12" style="fill:#d5d6db"/><rect x="11.76" y="10.53" width="35.59" height="0.12" style="fill:#d4d5da"/><rect x="11.76" y="10.41" width="35.59" height="0.12" style="fill:#d3d4d9"/><rect x="11.76" y="10.29" width="35.59" height="0.12" style="fill:#d2d3d8"/><rect x="11.76" y="10.17" width="35.59" height="0.12" style="fill:#d1d2d7"/><rect x="11.76" y="10.06" width="35.59" height="0.12" style="fill:#d0d1d7"/><rect x="11.76" y="9.94" width="35.59" height="0.12" style="fill:#cfd0d6"/><rect x="11.76" y="9.82" width="35.59" height="0.12" style="fill:#cecfd5"/><rect x="11.76" y="9.7" width="35.59" height="0.12" style="fill:#cdced4"/><rect x="11.76" y="9.59" width="35.59" height="0.12" style="fill:#cccdd4"/><rect x="11.76" y="9.47" width="35.59" height="0.12" style="fill:#cbccd3"/><rect x="11.76" y="9.35" width="35.59" height="0.12" style="fill:#cacbd2"/><rect x="11.76" y="9.23" width="35.59" height="0.12" style="fill:#c9cad1"/><rect x="11.76" y="9.11" width="35.59" height="0.12" style="fill:#c8c9d0"/><rect x="11.76" y="9" width="35.59" height="0.12" style="fill:#c7c8d0"/><rect x="11.76" y="8.88" width="35.59" height="0.12" style="fill:#c6c7cf"/><rect x="11.76" y="8.76" width="35.59" height="0.12" style="fill:#c5c6ce"/><rect x="11.76" y="8.64" width="35.59" height="0.12" style="fill:#c4c5cd"/><rect x="11.76" y="8.53" width="35.59" height="0.12" style="fill:#c3c4cd"/><rect x="11.76" y="8.41" width="35.59" height="0.12" style="fill:#c2c3cc"/><rect x="11.76" y="8.29" width="35.59" height="0.12" style="fill:#c1c2cb"/><rect x="11.76" y="8.17" width="35.59" height="0.12" style="fill:#c0c1ca"/><rect x="11.76" y="8.06" width="35.59" height="0.12" style="fill:#bfc0c9"/><rect x="11.76" y="7.94" width="35.59" height="0.12" style="fill:#bebfc9"/><rect x="11.76" y="7.82" width="35.59" height="0.12" style="fill:#bdbec8"/><rect x="11.76" y="7.7" width="35.59" height="0.12" style="fill:#bbbdc7"/><rect x="11.76" y="7.59" width="35.59" height="0.12" style="fill:#babcc6"/><rect x="11.76" y="7.47" width="35.59" height="0.12" style="fill:#b9bbc6"/><rect x="11.76" y="7.35" width="35.59" height="0.12" style="fill:#b8bac5"/><rect x="11.76" y="7.23" width="35.59" height="0.12" style="fill:#b7b9c4"/><rect x="11.76" y="7.11" width="35.59" height="0.12" style="fill:#b6b8c3"/><rect x="11.76" y="7" width="35.59" height="0.12" style="fill:#b5b7c2"/><rect x="11.76" y="6.88" width="35.59" height="0.12" style="fill:#b4b6c2"/><rect x="11.76" y="6.76" width="35.59" height="0.12" style="fill:#b3b5c1"/><rect x="11.76" y="6.64" width="35.59" height="0.12" style="fill:#b2b4c0"/><rect x="11.76" y="6.53" width="35.59" height="0.12" style="fill:#b1b3bf"/><rect x="11.76" y="6.41" width="35.59" height="0.12" style="fill:#b0b2bf"/><rect x="11.76" y="6.29" width="35.59" height="0.12" style="fill:#afb1be"/><rect x="11.76" y="6.17" width="35.59" height="0.12" style="fill:#aeb0bd"/><rect x="11.76" y="6.06" width="35.59" height="0.12" style="fill:#adafbc"/><rect x="11.76" y="5.94" width="35.59" height="0.12" style="fill:#acaebb"/><rect x="11.76" y="5.82" width="35.59" height="0.12" style="fill:#abadbb"/><rect x="11.76" y="5.7" width="35.59" height="0.12" style="fill:#aaacba"/><rect x="11.76" y="5.58" width="35.59" height="0.12" style="fill:#a9abb9"/><rect x="11.76" y="5.47" width="35.59" height="0.12" style="fill:#a8aab8"/><rect x="11.76" y="5.35" width="35.59" height="0.12" style="fill:#a7a9b8"/><rect x="11.76" y="5.23" width="35.59" height="0.12" style="fill:#a6a8b7"/><rect x="11.76" y="5.11" width="35.59" height="0.12" style="fill:#a5a7b6"/><rect x="11.76" y="5" width="35.59" height="0.12" style="fill:#a4a6b5"/><rect x="11.76" y="4.88" width="35.59" height="0.12" style="fill:#a3a5b4"/><rect x="11.76" y="4.76" width="35.59" height="0.12" style="fill:#a2a4b4"/><rect x="11.76" y="4.64" width="35.59" height="0.12" style="fill:#a1a3b3"/><rect x="11.76" y="4.53" width="35.59" height="0.12" style="fill:#a0a2b2"/><rect x="11.76" y="4.41" width="35.59" height="0.12" style="fill:#9fa1b1"/><rect x="11.76" y="4.29" width="35.59" height="0.12" style="fill:#9ea0b0"/><rect x="11.76" y="4.17" width="35.59" height="0.12" style="fill:#9d9fb0"/><rect x="11.76" y="4.05" width="35.59" height="0.12" style="fill:#9c9eaf"/><rect x="11.76" y="3.94" width="35.59" height="0.12" style="fill:#9b9dae"/><rect x="11.76" y="3.82" width="35.59" height="0.12" style="fill:#9a9cad"/><rect x="11.76" y="3.7" width="35.59" height="0.12" style="fill:#999bad"/><rect x="11.76" y="3.58" width="35.59" height="0.12" style="fill:#989aac"/><rect x="11.76" y="3.47" width="35.59" height="0.12" style="fill:#9799ab"/><rect x="11.76" y="3.35" width="35.59" height="0.12" style="fill:#9698aa"/><rect x="11.76" y="3.23" width="35.59" height="0.12" style="fill:#9597a9"/><rect x="11.76" y="3.11" width="35.59" height="0.12" style="fill:#9496a9"/><rect x="11.76" y="3" width="35.59" height="0.12" style="fill:#9395a8"/><rect x="11.76" y="2.88" width="35.59" height="0.12" style="fill:#9294a7"/><rect x="11.76" y="2.76" width="35.59" height="0.12" style="fill:#9193a6"/><rect x="11.76" y="2.64" width="35.59" height="0.12" style="fill:#9092a6"/><rect x="11.76" y="2.53" width="35.59" height="0.12" style="fill:#8f91a5"/><rect x="11.76" y="2.41" width="35.59" height="0.12" style="fill:#8e90a4"/><rect x="11.76" y="2.29" width="35.59" height="0.12" style="fill:#8d8fa3"/><rect x="11.76" y="2.17" width="35.59" height="0.12" style="fill:#8c8ea2"/><rect x="11.76" y="2.05" width="35.59" height="0.12" style="fill:#8b8da2"/><rect x="11.76" y="1.94" width="35.59" height="0.12" style="fill:#8a8ca1"/><rect x="11.76" y="1.82" width="35.59" height="0.12" style="fill:#898ba0"/><rect x="11.76" y="1.7" width="35.59" height="0.12" style="fill:#888a9f"/><rect x="11.76" y="1.58" width="35.59" height="0.12" style="fill:#87899f"/><rect x="11.76" y="1.47" width="35.59" height="0.12" style="fill:#86889e"/><rect x="11.76" y="1.35" width="35.59" height="0.12" style="fill:#85879d"/><path d="M96.44,259.46h0Z" transform="translate(-49.09 -258.11)" style="fill:#85879d"/></g><g style="clip-path:url(#clip-path-3)"><path d="M60.16,296.68h0Z" transform="translate(-49.09 -258.11)" style="fill:#6ecfff"/><rect x="11.06" y="38.44" width="37.66" height="0.13" style="fill:#6ecfff"/><rect x="11.06" y="38.31" width="37.66" height="0.13" style="fill:#6ecefe"/><rect x="11.06" y="38.17" width="37.66" height="0.13" style="fill:#6ecdfd"/><rect x="11.06" y="38.04" width="37.66" height="0.13" style="fill:#6eccfd"/><rect x="11.06" y="37.91" width="37.66" height="0.13" style="fill:#6ecbfc"/><rect x="11.06" y="37.78" width="37.66" height="0.13" style="fill:#6ecafb"/><rect x="11.06" y="37.64" width="37.66" height="0.13" style="fill:#6ec9fa"/><rect x="11.06" y="37.51" width="37.66" height="0.13" style="fill:#6ec8f9"/><rect x="11.06" y="37.38" width="37.66" height="0.13" style="fill:#6ec7f8"/><rect x="11.06" y="37.25" width="37.66" height="0.13" style="fill:#6ec6f8"/><rect x="11.06" y="37.12" width="37.66" height="0.13" style="fill:#6fc5f7"/><rect x="11.06" y="36.98" width="37.66" height="0.13" style="fill:#6fc4f6"/><rect x="11.06" y="36.85" width="37.66" height="0.13" style="fill:#6fc3f5"/><rect x="11.06" y="36.72" width="37.66" height="0.13" style="fill:#6fc2f4"/><rect x="11.06" y="36.59" width="37.66" height="0.13" style="fill:#6fc1f3"/><rect x="11.06" y="36.45" width="37.66" height="0.13" style="fill:#6fc0f3"/><rect x="11.06" y="36.32" width="37.66" height="0.13" style="fill:#6fbff2"/><rect x="11.06" y="36.19" width="37.66" height="0.13" style="fill:#6fbef1"/><rect x="11.06" y="36.06" width="37.66" height="0.13" style="fill:#6fbdf0"/><rect x="11.06" y="35.92" width="37.66" height="0.13" style="fill:#6fbcef"/><rect x="11.06" y="35.79" width="37.66" height="0.13" style="fill:#6fbbee"/><rect x="11.06" y="35.66" width="37.66" height="0.13" style="fill:#6fbaee"/><rect x="11.06" y="35.53" width="37.66" height="0.13" style="fill:#6fb9ed"/><rect x="11.06" y="35.39" width="37.66" height="0.13" style="fill:#6fb8ec"/><rect x="11.06" y="35.26" width="37.66" height="0.13" style="fill:#6fb7eb"/><rect x="11.06" y="35.13" width="37.66" height="0.13" style="fill:#6fb6ea"/><rect x="11.06" y="35" width="37.66" height="0.13" style="fill:#6fb5e9"/><rect x="11.06" y="34.87" width="37.66" height="0.13" style="fill:#6fb4e9"/><rect x="11.06" y="34.73" width="37.66" height="0.13" style="fill:#6fb3e8"/><rect x="11.06" y="34.6" width="37.66" height="0.13" style="fill:#6fb2e7"/><rect x="11.06" y="34.47" width="37.66" height="0.13" style="fill:#70b1e6"/><rect x="11.06" y="34.34" width="37.66" height="0.13" style="fill:#70b0e5"/><rect x="11.06" y="34.2" width="37.66" height="0.13" style="fill:#70afe4"/><rect x="11.06" y="34.07" width="37.66" height="0.13" style="fill:#70aee4"/><rect x="11.06" y="33.94" width="37.66" height="0.13" style="fill:#70ade3"/><rect x="11.06" y="33.81" width="37.66" height="0.13" style="fill:#70ace2"/><rect x="11.06" y="33.67" width="37.66" height="0.13" style="fill:#70abe1"/><rect x="11.06" y="33.54" width="37.66" height="0.13" style="fill:#70aae0"/><rect x="11.06" y="33.41" width="37.66" height="0.13" style="fill:#70a9df"/><rect x="11.06" y="33.28" width="37.66" height="0.13" style="fill:#70a8df"/><rect x="11.06" y="33.15" width="37.66" height="0.13" style="fill:#70a7de"/><rect x="11.06" y="33.01" width="37.66" height="0.13" style="fill:#70a6dd"/><rect x="11.06" y="32.88" width="37.66" height="0.13" style="fill:#70a5dc"/><rect x="11.06" y="32.75" width="37.66" height="0.13" style="fill:#70a4db"/><rect x="11.06" y="32.62" width="37.66" height="0.13" style="fill:#70a3db"/><rect x="11.06" y="32.48" width="37.66" height="0.13" style="fill:#70a2da"/><rect x="11.06" y="32.35" width="37.66" height="0.13" style="fill:#70a1d9"/><rect x="11.06" y="32.22" width="37.66" height="0.13" style="fill:#70a0d8"/><rect x="11.06" y="32.09" width="37.66" height="0.13" style="fill:#709fd7"/><rect x="11.06" y="31.95" width="37.66" height="0.13" style="fill:#719ed6"/><rect x="11.06" y="31.82" width="37.66" height="0.13" style="fill:#719dd6"/><rect x="11.06" y="31.69" width="37.66" height="0.13" style="fill:#719cd5"/><rect x="11.06" y="31.56" width="37.66" height="0.13" style="fill:#719bd4"/><rect x="11.06" y="31.43" width="37.66" height="0.13" style="fill:#719ad3"/><rect x="11.06" y="31.29" width="37.66" height="0.13" style="fill:#7199d2"/><rect x="11.06" y="31.16" width="37.66" height="0.13" style="fill:#7198d1"/><rect x="11.06" y="31.03" width="37.66" height="0.13" style="fill:#7197d1"/><rect x="11.06" y="30.9" width="37.66" height="0.13" style="fill:#7196d0"/><rect x="11.06" y="30.76" width="37.66" height="0.13" style="fill:#7195cf"/><rect x="11.06" y="30.63" width="37.66" height="0.13" style="fill:#7193ce"/><rect x="11.06" y="30.5" width="37.66" height="0.13" style="fill:#7192cd"/><rect x="11.06" y="30.37" width="37.66" height="0.13" style="fill:#7191cc"/><rect x="11.06" y="30.23" width="37.66" height="0.13" style="fill:#7190cc"/><rect x="11.06" y="30.1" width="37.66" height="0.13" style="fill:#718fcb"/><rect x="11.06" y="29.97" width="37.66" height="0.13" style="fill:#718eca"/><rect x="11.06" y="29.84" width="37.66" height="0.13" style="fill:#718dc9"/><rect x="11.06" y="29.71" width="37.66" height="0.13" style="fill:#718cc8"/><rect x="11.06" y="29.57" width="37.66" height="0.13" style="fill:#718bc7"/><rect x="11.06" y="29.44" width="37.66" height="0.13" style="fill:#718ac7"/><rect x="11.06" y="29.31" width="37.66" height="0.13" style="fill:#7289c6"/><rect x="11.06" y="29.18" width="37.66" height="0.13" style="fill:#7288c5"/><rect x="11.06" y="29.04" width="37.66" height="0.13" style="fill:#7287c4"/><rect x="11.06" y="28.91" width="37.66" height="0.13" style="fill:#7286c3"/><rect x="11.06" y="28.78" width="37.66" height="0.13" style="fill:#7285c2"/><rect x="11.06" y="28.65" width="37.66" height="0.13" style="fill:#7284c2"/><rect x="11.06" y="28.51" width="37.66" height="0.13" style="fill:#7283c1"/><rect x="11.06" y="28.38" width="37.66" height="0.13" style="fill:#7282c0"/><rect x="11.06" y="28.25" width="37.66" height="0.13" style="fill:#7281bf"/><rect x="11.06" y="28.12" width="37.66" height="0.13" style="fill:#7280be"/><rect x="11.06" y="27.98" width="37.66" height="0.13" style="fill:#727fbe"/><rect x="11.06" y="27.85" width="37.66" height="0.13" style="fill:#727ebd"/><rect x="11.06" y="27.72" width="37.66" height="0.13" style="fill:#727dbc"/><rect x="11.06" y="27.59" width="37.66" height="0.13" style="fill:#727cbb"/><rect x="11.06" y="27.46" width="37.66" height="0.13" style="fill:#727bba"/><rect x="11.06" y="27.32" width="37.66" height="0.13" style="fill:#727ab9"/><rect x="11.06" y="27.19" width="37.66" height="0.13" style="fill:#7279b9"/><rect x="11.06" y="27.06" width="37.66" height="0.13" style="fill:#7278b8"/><rect x="11.06" y="26.93" width="37.66" height="0.13" style="fill:#7277b7"/><rect x="11.06" y="26.79" width="37.66" height="0.13" style="fill:#7376b6"/><rect x="11.06" y="26.66" width="37.66" height="0.13" style="fill:#7375b5"/><rect x="11.06" y="26.53" width="37.66" height="0.13" style="fill:#7374b4"/><rect x="11.06" y="26.4" width="37.66" height="0.13" style="fill:#7373b4"/><rect x="11.06" y="26.26" width="37.66" height="0.13" style="fill:#7372b3"/><rect x="11.06" y="26.13" width="37.66" height="0.13" style="fill:#7371b2"/><rect x="11.06" y="26" width="37.66" height="0.13" style="fill:#7370b1"/><rect x="11.06" y="25.87" width="37.66" height="0.13" style="fill:#736fb0"/><rect x="11.06" y="25.74" width="37.66" height="0.13" style="fill:#736eaf"/><rect x="11.06" y="25.6" width="37.66" height="0.13" style="fill:#736daf"/><rect x="11.06" y="25.47" width="37.66" height="0.13" style="fill:#736cae"/><rect x="11.06" y="25.34" width="37.66" height="0.13" style="fill:#736bad"/><rect x="11.06" y="25.21" width="37.66" height="0.13" style="fill:#736aac"/><rect x="11.06" y="25.07" width="37.66" height="0.13" style="fill:#7369ab"/><rect x="11.06" y="24.94" width="37.66" height="0.13" style="fill:#7368aa"/><rect x="11.06" y="24.81" width="37.66" height="0.13" style="fill:#7367aa"/><rect x="11.06" y="24.68" width="37.66" height="0.13" style="fill:#7366a9"/><rect x="11.06" y="24.54" width="37.66" height="0.13" style="fill:#7365a8"/><rect x="11.06" y="24.41" width="37.66" height="0.13" style="fill:#7364a7"/><rect x="11.06" y="24.28" width="37.66" height="0.13" style="fill:#7363a6"/><rect x="11.06" y="24.15" width="37.66" height="0.13" style="fill:#7462a5"/><rect x="11.06" y="24.02" width="37.66" height="0.13" style="fill:#7461a5"/><rect x="11.06" y="23.88" width="37.66" height="0.13" style="fill:#7460a4"/><rect x="11.06" y="23.75" width="37.66" height="0.13" style="fill:#745fa3"/><rect x="11.06" y="23.62" width="37.66" height="0.13" style="fill:#745ea2"/><rect x="11.06" y="23.49" width="37.66" height="0.13" style="fill:#745da1"/><rect x="11.06" y="23.35" width="37.66" height="0.13" style="fill:#745ca0"/><rect x="11.06" y="23.22" width="37.66" height="0.13" style="fill:#745ba0"/><rect x="11.06" y="23.09" width="37.66" height="0.13" style="fill:#745a9f"/><rect x="11.06" y="22.96" width="37.66" height="0.13" style="fill:#74599e"/><rect x="11.06" y="15.68" width="37.66" height="7.28" style="fill:#74599e"/></g><g style="clip-path:url(#clip-path-4)"><rect x="11.65" y="30.79" width="36.43" height="4.27" style="fill:#74599e"/><rect x="11.65" y="30.61" width="36.43" height="0.18" style="fill:#74599e"/><rect x="11.65" y="30.44" width="36.43" height="0.18" style="fill:#74599f"/><rect x="11.65" y="30.26" width="36.43" height="0.18" style="fill:#745aa0"/><rect x="11.65" y="30.08" width="36.43" height="0.18" style="fill:#755aa1"/><rect x="11.65" y="29.9" width="36.43" height="0.18" style="fill:#755ba2"/><rect x="11.65" y="29.72" width="36.43" height="0.18" style="fill:#755ba3"/><rect x="11.65" y="29.54" width="36.43" height="0.18" style="fill:#755ca4"/><rect x="11.65" y="29.36" width="36.43" height="0.18" style="fill:#755ca5"/><rect x="11.65" y="29.19" width="36.43" height="0.18" style="fill:#765da6"/><rect x="11.65" y="29.01" width="36.43" height="0.18" style="fill:#765da7"/><rect x="11.65" y="28.83" width="36.43" height="0.18" style="fill:#765da8"/><rect x="11.65" y="28.65" width="36.43" height="0.18" style="fill:#765ea9"/><rect x="11.65" y="28.47" width="36.43" height="0.18" style="fill:#765eaa"/><rect x="11.65" y="28.29" width="36.43" height="0.18" style="fill:#765fab"/><rect x="11.65" y="28.12" width="36.43" height="0.18" style="fill:#775fac"/><rect x="11.65" y="27.94" width="36.43" height="0.18" style="fill:#7760ad"/><rect x="11.65" y="27.76" width="36.43" height="0.18" style="fill:#7760ae"/><rect x="11.65" y="27.58" width="36.43" height="0.18" style="fill:#7761af"/><rect x="11.65" y="27.4" width="36.43" height="0.18" style="fill:#7761b0"/><rect x="11.65" y="27.22" width="36.43" height="0.18" style="fill:#7861b1"/><rect x="11.65" y="27.04" width="36.43" height="0.18" style="fill:#7862b2"/><rect x="11.65" y="26.87" width="36.43" height="0.18" style="fill:#7862b3"/><rect x="11.65" y="26.69" width="36.43" height="0.18" style="fill:#7863b4"/><rect x="11.65" y="26.51" width="36.43" height="0.18" style="fill:#7863b5"/><rect x="11.65" y="26.33" width="36.43" height="0.18" style="fill:#7964b6"/><rect x="11.65" y="26.15" width="36.43" height="0.18" style="fill:#7964b7"/><rect x="11.65" y="25.97" width="36.43" height="0.18" style="fill:#7965b8"/><rect x="11.65" y="25.79" width="36.43" height="0.18" style="fill:#7965b9"/><rect x="11.65" y="25.62" width="36.43" height="0.18" style="fill:#7966ba"/><rect x="11.65" y="25.44" width="36.43" height="0.18" style="fill:#7a66bb"/><rect x="11.65" y="25.26" width="36.43" height="0.18" style="fill:#7a66bc"/><rect x="11.65" y="25.08" width="36.43" height="0.18" style="fill:#7a67bd"/><rect x="11.65" y="24.9" width="36.43" height="0.18" style="fill:#7a67be"/><rect x="11.65" y="24.72" width="36.43" height="0.18" style="fill:#7a68bf"/><rect x="11.65" y="24.54" width="36.43" height="0.18" style="fill:#7b68c0"/><rect x="11.65" y="24.37" width="36.43" height="0.18" style="fill:#7b69c1"/><rect x="11.65" y="24.19" width="36.43" height="0.18" style="fill:#7b69c2"/><rect x="11.65" y="24.01" width="36.43" height="0.18" style="fill:#7b6ac3"/><rect x="11.65" y="23.83" width="36.43" height="0.18" style="fill:#7b6ac4"/><rect x="11.65" y="23.65" width="36.43" height="0.18" style="fill:#7b6ac5"/><rect x="11.65" y="23.47" width="36.43" height="0.18" style="fill:#7c6bc6"/><rect x="11.65" y="23.3" width="36.43" height="0.18" style="fill:#7c6bc7"/><rect x="11.65" y="23.12" width="36.43" height="0.18" style="fill:#7c6cc8"/><rect x="11.65" y="22.94" width="36.43" height="0.18" style="fill:#7c6cc9"/><rect x="11.65" y="22.76" width="36.43" height="0.18" style="fill:#7c6dca"/><rect x="11.65" y="22.58" width="36.43" height="0.18" style="fill:#7d6dcb"/><rect x="11.65" y="22.4" width="36.43" height="0.18" style="fill:#7d6ecc"/><rect x="11.65" y="22.22" width="36.43" height="0.18" style="fill:#7d6ece"/><rect x="11.65" y="22.05" width="36.43" height="0.18" style="fill:#7d6ecf"/><rect x="11.65" y="21.87" width="36.43" height="0.18" style="fill:#7d6fd0"/><rect x="11.65" y="21.69" width="36.43" height="0.18" style="fill:#7e6fd1"/><rect x="11.65" y="21.51" width="36.43" height="0.18" style="fill:#7e70d2"/><rect x="11.65" y="21.33" width="36.43" height="0.18" style="fill:#7e70d3"/><rect x="11.65" y="21.15" width="36.43" height="0.18" style="fill:#7e71d4"/><rect x="11.65" y="20.97" width="36.43" height="0.18" style="fill:#7e71d5"/><rect x="11.65" y="20.8" width="36.43" height="0.18" style="fill:#7f72d6"/><rect x="11.65" y="20.62" width="36.43" height="0.18" style="fill:#7f72d7"/><rect x="11.65" y="20.44" width="36.43" height="0.18" style="fill:#7f72d8"/><rect x="11.65" y="20.26" width="36.43" height="0.18" style="fill:#7f73d9"/><rect x="11.65" y="20.08" width="36.43" height="0.18" style="fill:#7f73da"/><rect x="11.65" y="19.9" width="36.43" height="0.18" style="fill:#7f74db"/><rect x="11.65" y="19.72" width="36.43" height="0.18" style="fill:#8074dc"/><rect x="11.65" y="19.55" width="36.43" height="0.18" style="fill:#8075dd"/><rect x="11.65" y="19.37" width="36.43" height="0.18" style="fill:#8075de"/><rect x="11.65" y="19.19" width="36.43" height="0.18" style="fill:#8076df"/><rect x="11.65" y="19.01" width="36.43" height="0.18" style="fill:#8076e0"/><rect x="11.65" y="18.83" width="36.43" height="0.18" style="fill:#8176e1"/><rect x="11.65" y="18.65" width="36.43" height="0.18" style="fill:#8177e2"/><rect x="11.65" y="18.48" width="36.43" height="0.18" style="fill:#8177e3"/><rect x="11.65" y="18.3" width="36.43" height="0.18" style="fill:#8178e4"/><rect x="11.65" y="18.12" width="36.43" height="0.18" style="fill:#8178e5"/><rect x="11.65" y="17.94" width="36.43" height="0.18" style="fill:#8279e6"/><rect x="11.65" y="17.76" width="36.43" height="0.18" style="fill:#8279e7"/><rect x="11.65" y="17.58" width="36.43" height="0.18" style="fill:#827ae8"/><rect x="11.65" y="17.4" width="36.43" height="0.18" style="fill:#827ae9"/><rect x="11.65" y="17.23" width="36.43" height="0.18" style="fill:#827bea"/><rect x="11.65" y="17.05" width="36.43" height="0.18" style="fill:#837beb"/><rect x="11.65" y="16.87" width="36.43" height="0.18" style="fill:#837bec"/><rect x="11.65" y="16.69" width="36.43" height="0.18" style="fill:#837ced"/><rect x="11.65" y="16.51" width="36.43" height="0.18" style="fill:#837cee"/><rect x="11.65" y="16.33" width="36.43" height="0.18" style="fill:#837def"/><rect x="11.65" y="16.15" width="36.43" height="0.18" style="fill:#847df0"/><rect x="11.65" y="15.98" width="36.43" height="0.18" style="fill:#847ef1"/><rect x="11.65" y="15.8" width="36.43" height="0.18" style="fill:#847ef2"/><rect x="11.65" y="15.62" width="36.43" height="0.18" style="fill:#847ff3"/><rect x="11.65" y="15.44" width="36.43" height="0.18" style="fill:#847ff4"/><rect x="11.65" y="15.26" width="36.43" height="0.18" style="fill:#847ff5"/><rect x="11.65" y="15.08" width="36.43" height="0.18" style="fill:#8580f6"/><rect x="11.65" y="14.9" width="36.43" height="0.18" style="fill:#8580f7"/><rect x="11.65" y="14.73" width="36.43" height="0.18" style="fill:#8581f8"/><rect x="11.65" y="14.55" width="36.43" height="0.18" style="fill:#8581f9"/><rect x="11.65" y="14.37" width="36.43" height="0.18" style="fill:#8582fa"/><rect x="11.65" y="14.19" width="36.43" height="0.18" style="fill:#8682fb"/><rect x="11.65" y="14.01" width="36.43" height="0.18" style="fill:#8683fc"/><rect x="11.65" y="13.83" width="36.43" height="0.18" style="fill:#8683fd"/><path d="M97.18,272h0Z" transform="translate(-49.09 -258.11)" style="fill:#8683fd"/></g><path d="M77.2,279.43l-3,.81a17.42,17.42,0,0,0-2.28.76L69,282.14c-1,.36-1.89.29-2.24-.67h0a1.2,1.2,0,0,1,.74-1.54L76,277.08a1.57,1.57,0,0,1,2.07,1.38h0C78.08,278.94,77.65,279.26,77.2,279.43Z" transform="translate(-49.09 -258.11)" style="fill:#fbfffe"/><ellipse cx="34.35" cy="20.28" rx="1.75" ry="1.84" style="fill:#fbfffe"/><path d="M65.9,264c-.7,1.3.9,1.54,1.74,1.57a2.61,2.61,0,0,0,1.07-.2c8.79-3.4,15.43-1.45,15.43-1.45,4.88,2.16,7.06.07,7.06.07-6-5.62-14.64-3.93-14.64-3.93C69.6,261.39,65.9,264,65.9,264Z" transform="translate(-49.09 -258.11)" style="fill:#f8fffd"/><path d="M78.87,301.1c-13,0-23.66-9.64-23.66-21.49s10.62-21.5,23.66-21.5,23.66,9.65,23.66,21.5S91.92,301.1,78.87,301.1Zm0-40.58c-11.72,0-21.25,8.56-21.25,19.09s9.53,19.09,21.25,19.09,21.26-8.57,21.26-19.09S90.59,260.52,78.87,260.52Z" transform="translate(-49.09 -258.11)" style="fill:#373737"/><path d="M78.89,301.66c-11.48,0-20.81-7.18-20.81-16s9.33-16,20.81-16,20.8,7.18,20.8,16S90.36,301.66,78.89,301.66Zm0-29.58c-10.15,0-18.41,6.09-18.41,13.58s8.26,13.59,18.41,13.59,18.4-6.09,18.4-13.59S89,272.08,78.89,272.08Z" transform="translate(-49.09 -258.11)" style="fill:#373737"/><path d="M57.83,288.79c-.74-15.66,14-20.22,14-20.22-16.88,1.67-15.31,18.2-15.31,18.2Z" transform="translate(-49.09 -258.11)" style="fill:#373737"/><path d="M58.34,290.3l-2.28-3.38v-.11c0-.17-1.42-17,15.69-18.67l4.17-.41-4,1.25c-.14,0-14.37,4.66-13.65,19.79Zm-1.45-3.67.49.72c.14-10.26,7-15.54,11.17-17.8a14.21,14.21,0,0,0-10.34,8.88A20.32,20.32,0,0,0,56.89,286.63Z" transform="translate(-49.09 -258.11)" style="fill:#373737"/><path d="M99.65,289c.74-15.66-14-20.22-14-20.22,16.88,1.67,15.31,18.2,15.31,18.2Z" transform="translate(-49.09 -258.11)" style="fill:#373737"/><path d="M99.15,290.47l.07-1.53c.72-15.15-13.51-19.75-13.65-19.79l-4-1.25,4.19.41c17.11,1.69,15.71,18.5,15.69,18.67v.11ZM88.93,269.72c4.15,2.26,11,7.54,11.17,17.8l.49-.72a20.32,20.32,0,0,0-1.32-8.2A14.21,14.21,0,0,0,88.93,269.72Z" transform="translate(-49.09 -258.11)" style="fill:#373737"/><path d="M105.06,288.6a9.32,9.32,0,0,1-3.33-.72l-1-.42.29-1c1.3-4.59,0-10,0-10l-.47-1.91,1.91.45c2.1.5,3.66.9,4.64,1.2a2.65,2.65,0,0,1,1.86,2.33,17.88,17.88,0,0,1-1,8.35,2.89,2.89,0,0,1-2.28,1.72C105.49,288.58,105.28,288.6,105.06,288.6ZM103.64,286a4.91,4.91,0,0,0,1.79.19.48.48,0,0,0,.35-.29c.42-1,1.09-3.21.8-7.22a.21.21,0,0,0-.16-.2c-.63-.19-1.53-.43-2.69-.72A24.57,24.57,0,0,1,103.64,286Z" transform="translate(-49.09 -258.11)" style="fill:#373737"/></svg>