<svg xmlns="http://www.w3.org/2000/svg" viewBox="0 0 864.63 317.6"><g id="Calque_2" data-name="Calque 2"><path d="M-25.45,921a43.77,43.77,0,0,1,44-43.55,44,44,0,0,1,37.13,20.22,34.45,34.45,0,0,1,28,60.29,43.91,43.91,0,0,1,6.88,14.53,38.76,38.76,0,0,1,58.71,32.76c0,.77,0,1.54-.07,2.3h.07a38.49,38.49,0,0,1,9.73,1.23,43,43,0,0,1-5.09-20.38,44.08,44.08,0,0,1,88.16,0,44.71,44.71,0,0,1-.34,5.46,38.1,38.1,0,0,1,53.82,15.79,42.65,42.65,0,0,1,76.27-22.24,45.31,45.31,0,0,1,44.5-6.64C422,961.64,441.2,951.51,464,951.51c17.65,0,33.15,6,41.91,17.63a47.43,47.43,0,0,1,72.79,16.5A47.55,47.55,0,0,1,630.47,974c-.15-1.57-.23-3.15-.23-4.76,0-26.65,21.82-48.25,48.72-48.25a49.09,49.09,0,0,1,12.26,1.54,64.68,64.68,0,0,1,54-54.36,45.21,45.21,0,0,1,43.53-32.58c25,0,45.25,20.06,45.25,44.8a44.53,44.53,0,0,1-15.89,34.1,63.59,63.59,0,0,1,2.36,17.22c0,35.54-29.09,64.34-65,64.34a65.15,65.15,0,0,1-31.64-8.13,49,49,0,0,1-63.64,25.89c.1,1.21.15,2.45.15,3.69,0,25.8-21.13,46.72-47.17,46.72a47.18,47.18,0,0,1-42.83-27.13,47.45,47.45,0,0,1-74.26-6.67A49.89,49.89,0,0,1,442,1037a45.06,45.06,0,0,1-79.32,10.09A42.79,42.79,0,0,1,299,1030a37.91,37.91,0,0,1-75.56-4.07c0-.66,0-1.32,0-2a44.48,44.48,0,0,1-39.1,6,37.86,37.86,0,0,1,3.47,15.89,38.67,38.67,0,0,1-77.33,0c0-.77,0-1.54.07-2.3h-.07A38.66,38.66,0,0,1,74.47,1019,44.95,44.95,0,0,1,2.28,983.79a43.92,43.92,0,0,1,5.14-20.67A43.65,43.65,0,0,1-25.45,921Z" transform="translate(25.45 -835.58)" style="fill:#cac9c9"/><polygon points="848.85 35.61 848.85 295.74 18.92 295.74 18.92 109.14 72.58 145.14 130.58 177.31 174.66 206.55 223.38 181.91 279.84 206.55 328.56 196.46 380.38 190.34 443.79 190.34 493.28 181.91 558.24 171.95 638.67 177.31 697.45 148.21 780.97 103.78 848.85 35.61" style="fill:#cac9c9"/><polygon points="349.51 204.89 338.28 186.51 307.64 186.51 267.81 178.34 222.42 185.53 210.62 217.14 248.41 223.27 349.51 204.89" style="fill:#cac9c9"/><path d="M718.18,967.75s-18.52-2.79-25-40.85" transform="translate(25.45 -835.58)" style="fill:#cac9c9"/><path d="M755,986.35s51.07,5.1,57.88-42.9" transform="translate(25.45 -835.58)" style="fill:#cac9c9"/><path d="M749.36,887.19s1,30.23,25.77,28.45" transform="translate(25.45 -835.58)" style="fill:#cac9c9"/><path d="M632.47,974a42.45,42.45,0,0,1,20.45,34.82" transform="translate(25.45 -835.58)" style="fill:#cac9c9"/><path d="M516.44,981.4s15.5,20.53-5.33,44.46" transform="translate(25.45 -835.58)" style="fill:#cac9c9"/><path d="M420.32,980.75s15.08,4.57,23.58,22.88" transform="translate(25.45 -835.58)" style="fill:#cac9c9"/><path d="M405.41,1065.57s-39.57,6.63-41.63-27.65" transform="translate(25.45 -835.58)" style="fill:#cac9c9"/><path d="M376.24,987.39s9,11.21,8.35,22.44" transform="translate(25.45 -835.58)" style="fill:#cac9c9"/><path d="M229.4,1023.94s-20.74,15.51-40.48,4.62" transform="translate(25.45 -835.58)" style="fill:#cac9c9"/><path d="M231.2,1015.26s-10.89,26.41,9.44,35.28" transform="translate(25.45 -835.58)" style="fill:#cac9c9"/><path d="M97.67,972.47S68.76,989.39,81.78,1019" transform="translate(25.45 -835.58)" style="fill:#cac9c9"/><path d="M33.51,950.09c18.15-13,37.28,2.55,37.28,2.55" transform="translate(25.45 -835.58)" style="fill:#cac9c9"/><path d="M68.09,911.07s9.7,22.09-8.94,34.79" transform="translate(25.45 -835.58)" style="fill:#cac9c9"/><path d="M571.27,1092.27A42.45,42.45,0,0,1,594,1058.86" transform="translate(25.45 -835.58)" style="fill:#cac9c9"/><path d="M653.08,1087.55a42.46,42.46,0,0,1-13.48,38.07" transform="translate(25.45 -835.58)" style="fill:#cac9c9"/><path d="M794,1066.76s-51.24,2.7-50.69,51.18" transform="translate(25.45 -835.58)" style="fill:#cac9c9"/><path d="M124.05,1143.86s51.06,5.1,57.87-42.9" transform="translate(25.45 -835.58)" style="fill:#cac9c9"/><path d="M55.32,1060.18c18.15-13,37.28,2.55,37.28,2.55" transform="translate(25.45 -835.58)" style="fill:#cac9c9"/><path d="M38.47,1112c-14.83-16.72-1.29-37.35-1.29-37.35" transform="translate(25.45 -835.58)" style="fill:#cac9c9"/><path d="M-20.28,930a43.77,43.77,0,0,1,44-43.55A44,44,0,0,1,60.82,906.7a34.45,34.45,0,0,1,28,60.29,43.93,43.93,0,0,1,6.89,14.53,38.76,38.76,0,0,1,58.71,32.76c0,.77,0,1.54-.07,2.3h.07a38.41,38.41,0,0,1,9.72,1.23A43.1,43.1,0,0,1,159,997.43a44.08,44.08,0,0,1,88.16,0,42.8,42.8,0,0,1-.35,5.46,38.11,38.11,0,0,1,53.83,15.79,42.65,42.65,0,0,1,76.27-22.24,45.31,45.31,0,0,1,44.5-6.64c5.72-19.11,24.93-29.24,47.76-29.24,17.65,0,33.15,6.05,41.91,17.63a47.43,47.43,0,0,1,72.79,16.5A47.55,47.55,0,0,1,635.64,983c-.15-1.57-.23-3.15-.23-4.76,0-26.65,21.82-48.25,48.72-48.25a49.09,49.09,0,0,1,12.26,1.54,64.68,64.68,0,0,1,54-54.36,45.3,45.3,0,0,1,88.77,12.22,44.52,44.52,0,0,1-15.88,34.1,63.59,63.59,0,0,1,2.36,17.22c0,35.54-29.09,64.34-65,64.34A65.14,65.14,0,0,1,729.06,997a49,49,0,0,1-63.65,25.89c.11,1.21.16,2.45.16,3.69,0,25.8-21.13,46.72-47.17,46.72a47.18,47.18,0,0,1-42.83-27.13,47.45,47.45,0,0,1-74.26-6.67,49.89,49.89,0,0,1-54.1,6.62,45.06,45.06,0,0,1-79.32,10.09,42.79,42.79,0,0,1-63.7-17.13,37.91,37.91,0,0,1-75.56-4.07c0-.66,0-1.32.05-2a44.48,44.48,0,0,1-39.1,6,37.86,37.86,0,0,1,3.47,15.89,38.67,38.67,0,0,1-77.33,0c0-.77,0-1.54.07-2.3h-.07a38.65,38.65,0,0,1-36.08-24.52A44.95,44.95,0,0,1,7.45,992.84a43.92,43.92,0,0,1,5.14-20.67A43.65,43.65,0,0,1-20.28,930Z" transform="translate(25.45 -835.58)" style="fill:#fff"/><polygon points="854.02 44.66 854.02 304.79 24.09 304.79 24.09 118.19 77.75 154.19 135.75 186.36 179.83 215.59 228.55 190.96 285.01 215.59 333.73 205.51 385.54 199.38 448.96 199.38 498.45 190.96 563.41 181 643.84 186.36 702.62 157.25 786.14 112.83 854.02 44.66" style="fill:#fff"/><polygon points="354.63 213.93 343.4 195.55 312.76 195.55 272.93 187.38 227.54 194.58 215.74 226.19 253.53 232.32 354.63 213.93" style="fill:#fff"/><path d="M723.3,976.79s-18.52-2.79-25-40.85" transform="translate(25.45 -835.58)" style="fill:#fff;stroke:#1d1d1b;stroke-miterlimit:10;stroke-width:0.25px"/><path d="M760.16,995.39s51.07,5.11,57.88-42.89" transform="translate(25.45 -835.58)" style="fill:#fff;stroke:#1d1d1b;stroke-miterlimit:10;stroke-width:0.25px"/><path d="M754.48,896.23s1,30.23,25.77,28.46" transform="translate(25.45 -835.58)" style="fill:#fff;stroke:#1d1d1b;stroke-miterlimit:10;stroke-width:0.25px"/><path d="M637.58,983A42.45,42.45,0,0,1,658,1017.86" transform="translate(25.45 -835.58)" style="fill:#fff;stroke:#1d1d1b;stroke-miterlimit:10;stroke-width:0.25px"/><path d="M521.56,990.45s15.5,20.52-5.33,44.45" transform="translate(25.45 -835.58)" style="fill:#fff;stroke:#1d1d1b;stroke-miterlimit:10;stroke-width:0.25px"/><path d="M425.43,989.8s15.09,4.57,23.59,22.88" transform="translate(25.45 -835.58)" style="fill:#fff;stroke:#1d1d1b;stroke-miterlimit:10;stroke-width:0.25px"/><path d="M381.35,996.44s9,11.21,8.36,22.44" transform="translate(25.45 -835.58)" style="fill:#fff;stroke:#1d1d1b;stroke-miterlimit:10;stroke-width:0.25px"/><path d="M234.51,1033s-20.73,15.51-40.47,4.61" transform="translate(25.45 -835.58)" style="fill:#fff;stroke:#1d1d1b;stroke-miterlimit:10;stroke-width:0.25px"/><path d="M236.32,1024.31s-10.89,26.4,9.44,35.28" transform="translate(25.45 -835.58)" style="fill:#fff;stroke:#1d1d1b;stroke-miterlimit:10;stroke-width:0.25px"/><path d="M102.78,981.52s-28.9,16.91-15.89,46.54" transform="translate(25.45 -835.58)" style="fill:#fff;stroke:#1d1d1b;stroke-miterlimit:10;stroke-width:0.25px"/><path d="M38.63,959.14c18.15-13,37.28,2.55,37.28,2.55" transform="translate(25.45 -835.58)" style="fill:#fff;stroke:#1d1d1b;stroke-miterlimit:10;stroke-width:0.25px"/><path d="M73.21,920.11s9.7,22.1-8.94,34.79" transform="translate(25.45 -835.58)" style="fill:#fff;stroke:#1d1d1b;stroke-miterlimit:10;stroke-width:0.25px"/><path d="M576.39,1101.31a42.47,42.47,0,0,1,22.68-33.41" transform="translate(25.45 -835.58)" style="fill:#fff;stroke:#1d1d1b;stroke-miterlimit:10;stroke-width:0.25px"/><path d="M658.2,1096.6a42.44,42.44,0,0,1-13.48,38.06" transform="translate(25.45 -835.58)" style="fill:#fff;stroke:#1d1d1b;stroke-miterlimit:10;stroke-width:0.25px"/><path d="M799.08,1075.8s-51.24,2.7-50.69,51.18" transform="translate(25.45 -835.58)" style="fill:#fff;stroke:#1d1d1b;stroke-miterlimit:10;stroke-width:0.25px"/><path d="M129.17,1152.9S180.23,1158,187,1110" transform="translate(25.45 -835.58)" style="fill:#fff;stroke:#1d1d1b;stroke-miterlimit:10;stroke-width:0.25px"/><path d="M60.44,1069.22c18.15-13,37.28,2.56,37.28,2.56" transform="translate(25.45 -835.58)" style="fill:#fff;stroke:#1d1d1b;stroke-miterlimit:10;stroke-width:0.25px"/><path d="M43.59,1121c-14.83-16.71-1.29-37.34-1.29-37.34" transform="translate(25.45 -835.58)" style="fill:#fff;stroke:#1d1d1b;stroke-miterlimit:10;stroke-width:0.25px"/></g></svg>