<svg xmlns="http://www.w3.org/2000/svg" viewBox="0 0 296.17 410.13"><g id="Calque_4" data-name="Calque 4"><path d="M329.81,362.29s-30.9,21-26.2,58.66,4.7,73.62-19.05,91.24-53.09,19.15-53.09,19.15v-13s58.2-5.93,60.29-46.24c1.34-25.92.61-44.28-.2-54.87-2-26.5,12.31-51.8,36.41-63,.6-.28,1.21-.55,1.84-.82C369.58,336,329.81,362.29,329.81,362.29Z" transform="translate(-198.88 -121.21)" style="fill:#2c2c57"/></g><g id="Calque_2" data-name="Calque 2"><g id="Calque_6" data-name="Calque 6"><path d="M393.89,298.68c8.53,12.27,48.39,50.95,50.42,61.25,0,0-9.55,24.5-36.77,27.58l-22.77-8.16,0,17.35C366.54,416,336.48,414,336.48,414l-27.56-74.72L271.61,352,239,322.33s5.76-2.27,52-46.81c1.73-1.6,3.36-3.15,5-4.48a74.23,74.23,0,0,1,9.74-6.92c9.55-5.64,18.64-7.76,26.85-7.62,40.58-.14,75.76-12.75,78.77-15.32l13.89,46.51s-19.34,7.19-35,6.22c3.3,4.2-3.4-4.78,1.32,1.84l.15.26.15.26.21.34a2,2,0,0,0,.44.55,2.94,2.94,0,0,0,.54.73c.33.15.48.41.82.79Z" transform="translate(-198.88 -121.21)" style="fill:#d6d4ff"/><path d="M392.75,297.15l.36.6a2.72,2.72,0,0,0-.54-.72A.28.28,0,0,1,392.75,297.15Z" transform="translate(-198.88 -121.21)" style="fill:#d6d4ff"/><path d="M336.48,407.31s33.4,4.13,48.28-23.95Z" transform="translate(-198.88 -121.21)" style="fill:#d6d4ff"/></g><path d="M399.33,384.56s34.32,43,37.28,45.41,14.25,7.45,20.88,3.15L490,412s9-11,2.88-18.55-19-3.77-19-3.77l-33-36.32Z" transform="translate(-198.88 -121.21)" style="fill:#2c2c57"/><path d="M441,353.38s-15.14,26.48-41.62,31.18V374.4Z" transform="translate(-198.88 -121.21)" style="fill:#d6d4ff"/><path d="M384.73,395.44s7,48.92,6.69,52.47-4.34,14.48-11.59,16.12l-35.58,8.05s-13.27-1.14-14.37-10.24,9.95-15.27,9.95-15.27L333.15,405Z" transform="translate(-198.88 -121.21)" style="fill:#2c2c57"/><path d="M384.73,395.44s-31.58,15.93-51.58,9.53l3.33-7.68Z" transform="translate(-198.88 -121.21)" style="fill:#d6d4ff"/></g><g id="Calque_3" data-name="Calque 3"><path d="M425.26,287.69S405.89,276,411.37,241.18l19.79-8.08s5.55-13.56,7.25-15.27,8.88-12.13,11.65,1.34l-1.27,9.19s5,5.19-.46,17.63c0,0,5.31-11.35.46-17.63,0,0,27.13-11.68,33.91,4.66s-6.65,25.4-6.65,25.4Z" transform="translate(-198.88 -121.21)" style="fill:#2c2c57"/><path d="M277.8,349.91s3.88-20.33-27.22-36.83L231.8,323.47s-14.17-3.7-16.56-3.37-15-.18-5.93,10.13l8.12,4.5s1.14,7.11,14.37,10.21c0,0-12.26-2.57-14.37-10.21,0,0-25.63,14.67-16.63,29.91s24.3,9.93,24.3,9.93Z" transform="translate(-198.88 -121.21)" style="fill:#2c2c57"/></g><g id="Calque_1" data-name="Calque 1"><g id="Calque_8" data-name="Calque 8"><path d="M357.82,367.55l41.06-21.83a12,12,0,0,0,5-16.23l-9.91-18.63a12,12,0,0,0-16.23-5l-41.05,21.83a12,12,0,0,0-5,16.23l9.9,18.63A12,12,0,0,0,357.82,367.55Z" transform="translate(-198.88 -121.21)" style="fill:#fefefe"/><path d="M357.82,367.55l28.7-15.26a12,12,0,0,0,5-16.23l-9.91-18.63a12,12,0,0,0-16.23-5l-28.69,15.26a12,12,0,0,0-5,16.23l9.9,18.63A12,12,0,0,0,357.82,367.55Z" transform="translate(-198.88 -121.21)" style="fill:#2c2c57"/><polygon points="171.74 239.54 168.83 241.09 161.6 227.49 150.14 223.84 140.24 205.21 143.33 203.56 153.15 222.24 164.42 225.76 171.74 239.54" style="fill:#b3aaff"/><circle cx="379.79" cy="339.22" r="6.8" transform="translate(-313.68 96.79) rotate(-28)" style="fill:#fefefe"/><circle cx="379.79" cy="339.22" r="6.8" transform="translate(-313.68 96.79) rotate(-28)" style="fill:#b3aaff"/><circle cx="178.44" cy="219.33" r="4" style="fill:#dcdbed"/><circle cx="372.56" cy="325.62" r="6.8" transform="translate(-308.14 91.81) rotate(-28)" style="fill:#b3aaff"/><circle cx="176.15" cy="203.1" r="4" style="fill:#dcdbed"/><circle cx="356.49" cy="334.17" r="6.8" transform="translate(-314.03 85.26) rotate(-28)" style="fill:#b3aaff"/><circle cx="155.14" cy="214.27" r="4" style="fill:#dcdbed"/><circle cx="152.74" cy="240.01" r="4" style="fill:#b3aaff"/><circle cx="151.85" cy="238.56" r="2.4" style="fill:#dcdbed"/></g><g id="Calque_2-2" data-name="Calque 2"><circle cx="92.88" cy="84.52" r="84.5" style="fill:#d6d4ff"/><ellipse cx="300.19" cy="202.68" rx="75.1" ry="79.5" transform="translate(-236.28 -49.77) rotate(-12.78)" style="fill:#fff"/><ellipse cx="303.61" cy="201.91" rx="71.9" ry="76.2" transform="matrix(0.98, -0.22, 0.22, 0.98, -236.03, -49.04)" style="fill:#2c2c57"/><ellipse cx="259.16" cy="219.79" rx="12.4" ry="13.4" transform="translate(-241.08 -58.43) rotate(-12.78)" style="fill:#b3aaff"/><ellipse cx="269.39" cy="240.95" rx="4.2" ry="4.6" transform="translate(-245.51 -55.64) rotate(-12.78)" style="fill:#b3aaff"/><path d="M254.87,172.87s40.84-32.44,63.28-23.48,42.06,39.88,42.06,39.88-2.55-42-39.61-52.12C286.93,128,254.87,172.87,254.87,172.87Z" transform="translate(-198.88 -121.21)" style="fill:#b3aaff"/><ellipse cx="241.45" cy="262.05" rx="23.2" ry="29.8" transform="translate(-312.63 112.51) rotate(-42.78)" style="fill:#fff"/><ellipse cx="236.69" cy="266.71" rx="16.6" ry="24.1" transform="translate(-317.06 110.52) rotate(-42.78)" style="fill:#d6d4ff"/></g></g></svg>