<svg xmlns="http://www.w3.org/2000/svg" viewBox="0 0 1920 1684.38"><g id="Calque_65" data-name="Calque 65"><rect width="1920" height="1684.38" style="fill:#1e2663"/></g><g id="Calque_56" data-name="Calque 56"><path d="M364.53,469.94c.77,4.21,6.9,6.38,6.9,6.38a11.24,11.24,0,0,0-7.22,6.83A8,8,0,0,0,358,477,17.82,17.82,0,0,0,364.53,469.94Z" transform="translate(-0.06 0.91)" style="fill:#58417b"/><path d="M1725.17,44.61c.55,3,4.94,4.56,4.94,4.56a8.06,8.06,0,0,0-5.17,4.89,5.75,5.75,0,0,0-4.43-4.43A12.78,12.78,0,0,0,1725.17,44.61Z" transform="translate(-0.06 0.91)" style="fill:#58417b"/><circle cx="773.13" cy="988.4" r="1.98" style="fill:#8677a0"/><circle cx="881" cy="980.74" r="0.96" style="fill:#8677a0"/><circle cx="908.51" cy="1061.57" r="1.19" style="fill:#8677a0"/><circle cx="1082.81" cy="1120.98" r="1.02" style="fill:#8677a0"/><circle cx="905.87" cy="1228.64" r="1.79" style="fill:#8677a0"/><circle cx="694.21" cy="849.49" r="1.53" style="fill:#8677a0"/><circle cx="638.72" cy="735.79" r="2.55" style="fill:#8677a0"/><circle cx="822.38" cy="763.53" r="1.7" style="fill:#8677a0"/><circle cx="660" cy="976.3" r="2.38" style="fill:#8677a0"/><circle cx="1170.47" cy="783.96" r="4.09" style="fill:#8677a0"/><circle cx="967.11" cy="771.06" r="1.15" style="fill:#8677a0"/><circle cx="1019.32" cy="794.43" r="1.53" style="fill:#8677a0"/><circle cx="982.04" cy="835.53" r="1.28" style="fill:#8677a0"/><circle cx="961.23" cy="900.26" r="1.91" style="fill:#8677a0"/><circle cx="1053.28" cy="876.13" r="2.55" style="fill:#8677a0"/><circle cx="1042.68" cy="739.15" r="1.15" style="fill:#8677a0"/><circle cx="1154.89" cy="697.15" r="1.02" style="fill:#8677a0"/><circle cx="1162.04" cy="896.81" r="1.79" style="fill:#8677a0"/><circle cx="1125.79" cy="1044.38" r="1.53" style="fill:#8677a0"/><circle cx="1004.51" cy="972.64" r="2.55" style="fill:#8677a0"/><circle cx="1048.17" cy="1120.72" r="1.28" style="fill:#8677a0"/><path d="M924,813.43c.77,4.21,6.89,6.38,6.89,6.38a11.24,11.24,0,0,0-7.21,6.83,8,8,0,0,0-6.19-6.19A17.82,17.82,0,0,0,924,813.43Z" transform="translate(-0.06 0.91)" style="fill:#58417b"/><circle cx="803.28" cy="1094.17" r="1.19" style="fill:#8677a0"/><circle cx="906.85" cy="1133.91" r="2.13" style="fill:#8677a0"/><circle cx="889.83" cy="1202.17" r="1.28" style="fill:#8677a0"/><circle cx="648.3" cy="1214.26" r="1.28" style="fill:#8677a0"/><circle cx="620.3" cy="1233.57" r="1.53" style="fill:#8677a0"/><circle cx="652.38" cy="1260.55" r="0.94" style="fill:#8677a0"/><circle cx="603.36" cy="1275.36" r="1.45" style="fill:#8677a0"/><circle cx="480.55" cy="1107.96" r="1.7" style="fill:#8677a0"/><circle cx="872.72" cy="1097.66" r="0.77" style="fill:#8677a0"/><circle cx="875.4" cy="1140.17" r="1.91" style="fill:#8677a0"/><circle cx="1251.11" cy="1192.89" r="1.79" style="fill:#8677a0"/><circle cx="1327.96" cy="1166.09" r="1.02" style="fill:#8677a0"/><circle cx="1326.55" cy="1145.79" r="2.17" style="fill:#8677a0"/><circle cx="1335.87" cy="1114.77" r="1.53" style="fill:#8677a0"/><circle cx="684.13" cy="1357.19" r="1.15" style="fill:#8677a0"/><circle cx="732" cy="1375.96" r="1.02" style="fill:#8677a0"/><circle cx="754.47" cy="1381.57" r="1.79" style="fill:#8677a0"/><circle cx="921.32" cy="1400.34" r="0.89" style="fill:#8677a0"/><circle cx="971.74" cy="1389.49" r="1.53" style="fill:#8677a0"/><circle cx="666.3" cy="1479.36" r="1.02" style="fill:#8677a0"/><circle cx="739.19" cy="1431.74" r="2.17" style="fill:#8677a0"/><circle cx="888.43" cy="1454.34" r="1.53" style="fill:#8677a0"/><circle cx="862.51" cy="1431.49" r="1.91" style="fill:#8677a0"/><circle cx="544.08" cy="1491.62" r="1.15" style="fill:#8677a0"/><circle cx="591.96" cy="1510.38" r="1.02" style="fill:#8677a0"/><circle cx="614.43" cy="1516" r="1.79" style="fill:#8677a0"/><circle cx="781.28" cy="1534.77" r="0.89" style="fill:#8677a0"/><circle cx="831.7" cy="1523.91" r="1.53" style="fill:#8677a0"/><circle cx="526.26" cy="1613.79" r="1.02" style="fill:#8677a0"/><circle cx="599.15" cy="1566.17" r="2.17" style="fill:#8677a0"/><circle cx="748.38" cy="1588.77" r="1.53" style="fill:#8677a0"/><circle cx="722.47" cy="1565.91" r="1.91" style="fill:#8677a0"/><circle cx="1023.96" cy="1403.66" r="1.15" style="fill:#8677a0"/><circle cx="1071.83" cy="1422.43" r="1.02" style="fill:#8677a0"/><circle cx="1094.3" cy="1428.04" r="1.79" style="fill:#8677a0"/><circle cx="1261.15" cy="1446.81" r="0.89" style="fill:#8677a0"/><circle cx="1311.57" cy="1435.96" r="1.53" style="fill:#8677a0"/><circle cx="1006.13" cy="1525.83" r="1.02" style="fill:#8677a0"/><circle cx="1079.02" cy="1478.21" r="2.17" style="fill:#8677a0"/><circle cx="1228.26" cy="1500.81" r="1.53" style="fill:#8677a0"/><circle cx="1202.34" cy="1477.96" r="1.91" style="fill:#8677a0"/><circle cx="1227.38" cy="1364.49" r="1.98" style="fill:#8677a0"/><circle cx="1362.77" cy="1437.66" r="1.19" style="fill:#8677a0"/><circle cx="1237.57" cy="1499.36" r="1.45" style="fill:#8677a0"/><circle cx="1360.13" cy="1604.72" r="1.79" style="fill:#8677a0"/><circle cx="1207.79" cy="1557.74" r="1.28" style="fill:#8677a0"/><circle cx="1179.79" cy="1577.06" r="1.53" style="fill:#8677a0"/><circle cx="1211.87" cy="1604.04" r="0.94" style="fill:#8677a0"/><circle cx="1162.85" cy="1618.85" r="1.45" style="fill:#8677a0"/><circle cx="1148.47" cy="1225.57" r="1.53" style="fill:#8677a0"/><circle cx="1092.98" cy="1111.87" r="2.55" style="fill:#8677a0"/><circle cx="1276.64" cy="1139.62" r="1.7" style="fill:#8677a0"/><circle cx="1114.26" cy="1352.38" r="2.38" style="fill:#8677a0"/><circle cx="1421.36" cy="1147.15" r="1.15" style="fill:#8677a0"/><circle cx="1415.49" cy="1276.34" r="1.91" style="fill:#8677a0"/><path d="M1378.28,1189.51c.76,4.21,6.89,6.38,6.89,6.38a11.23,11.23,0,0,0-7.21,6.83,8.06,8.06,0,0,0-6.19-6.19A17.92,17.92,0,0,0,1378.28,1189.51Z" transform="translate(-0.06 0.91)" style="fill:#58417b"/><circle cx="359.02" cy="941.74" r="1.19" style="fill:#8677a0"/><circle cx="233.83" cy="1003.45" r="1.45" style="fill:#8677a0"/><circle cx="462.6" cy="981.49" r="2.13" style="fill:#8677a0"/><circle cx="533.32" cy="1001.15" r="1.02" style="fill:#8677a0"/><circle cx="445.57" cy="1049.74" r="1.28" style="fill:#8677a0"/><circle cx="356.38" cy="1108.81" r="1.79" style="fill:#8677a0"/><circle cx="204.04" cy="1061.83" r="1.28" style="fill:#8677a0"/><circle cx="176.04" cy="1081.15" r="1.53" style="fill:#8677a0"/><circle cx="208.13" cy="1108.13" r="0.94" style="fill:#8677a0"/><circle cx="159.11" cy="1122.94" r="1.45" style="fill:#8677a0"/><circle cx="36.3" cy="955.53" r="1.7" style="fill:#8677a0"/><circle cx="576.3" cy="924.55" r="1.53" style="fill:#8677a0"/><circle cx="428.47" cy="945.23" r="0.77" style="fill:#8677a0"/><circle cx="431.15" cy="987.74" r="1.91" style="fill:#8677a0"/><circle cx="498.68" cy="1000.89" r="1.28" style="fill:#8677a0"/><circle cx="948.34" cy="1011.74" r="1.66" style="fill:#8677a0"/><circle cx="806.85" cy="1040.47" r="1.79" style="fill:#8677a0"/><circle cx="883.7" cy="1013.66" r="1.02" style="fill:#8677a0"/><circle cx="882.3" cy="993.36" r="2.17" style="fill:#8677a0"/><circle cx="891.62" cy="962.34" r="1.53" style="fill:#8677a0"/><circle cx="239.87" cy="1204.77" r="1.15" style="fill:#8677a0"/><circle cx="287.74" cy="1223.53" r="1.02" style="fill:#8677a0"/><circle cx="310.21" cy="1229.15" r="1.79" style="fill:#8677a0"/><circle cx="477.06" cy="1247.91" r="0.89" style="fill:#8677a0"/><circle cx="527.49" cy="1237.06" r="1.53" style="fill:#8677a0"/><circle cx="222.04" cy="1326.94" r="1.02" style="fill:#8677a0"/><circle cx="294.94" cy="1279.32" r="2.17" style="fill:#8677a0"/><circle cx="444.17" cy="1301.91" r="1.53" style="fill:#8677a0"/><circle cx="418.26" cy="1279.06" r="1.91" style="fill:#8677a0"/><circle cx="99.83" cy="1339.19" r="1.15" style="fill:#8677a0"/><circle cx="147.7" cy="1357.96" r="1.02" style="fill:#8677a0"/><circle cx="170.17" cy="1363.57" r="1.79" style="fill:#8677a0"/><circle cx="337.02" cy="1382.34" r="0.89" style="fill:#8677a0"/><circle cx="387.45" cy="1371.49" r="1.53" style="fill:#8677a0"/><circle cx="82" cy="1461.36" r="1.02" style="fill:#8677a0"/><circle cx="154.89" cy="1413.74" r="2.17" style="fill:#8677a0"/><circle cx="304.13" cy="1436.34" r="1.53" style="fill:#8677a0"/><circle cx="278.21" cy="1413.49" r="1.91" style="fill:#8677a0"/><circle cx="579.7" cy="1251.23" r="1.15" style="fill:#8677a0"/><circle cx="627.57" cy="1270" r="1.02" style="fill:#8677a0"/><circle cx="650.04" cy="1275.62" r="1.79" style="fill:#8677a0"/><circle cx="816.89" cy="1294.38" r="0.89" style="fill:#8677a0"/><circle cx="867.32" cy="1283.53" r="1.53" style="fill:#8677a0"/><circle cx="561.87" cy="1373.4" r="1.02" style="fill:#8677a0"/><circle cx="634.77" cy="1325.79" r="2.17" style="fill:#8677a0"/><circle cx="784" cy="1348.38" r="1.53" style="fill:#8677a0"/><circle cx="758.09" cy="1325.53" r="1.91" style="fill:#8677a0"/><circle cx="891" cy="1204.4" r="0.96" style="fill:#8677a0"/><circle cx="918.51" cy="1285.23" r="1.19" style="fill:#8677a0"/><circle cx="793.32" cy="1346.94" r="1.45" style="fill:#8677a0"/><circle cx="915.87" cy="1452.3" r="1.79" style="fill:#8677a0"/><circle cx="763.53" cy="1405.32" r="1.28" style="fill:#8677a0"/><circle cx="735.53" cy="1424.64" r="1.53" style="fill:#8677a0"/><circle cx="767.62" cy="1451.62" r="0.94" style="fill:#8677a0"/><circle cx="718.6" cy="1466.43" r="1.45" style="fill:#8677a0"/><circle cx="704.21" cy="1073.15" r="1.53" style="fill:#8677a0"/><circle cx="648.72" cy="959.45" r="2.55" style="fill:#8677a0"/><circle cx="832.38" cy="987.19" r="1.7" style="fill:#8677a0"/><circle cx="977.11" cy="994.72" r="1.15" style="fill:#8677a0"/><circle cx="1250.47" cy="925.66" r="1.19" style="fill:#8677a0"/><circle cx="1125.28" cy="987.36" r="1.45" style="fill:#8677a0"/><circle cx="1354.04" cy="965.4" r="2.13" style="fill:#8677a0"/><circle cx="1095.49" cy="1045.74" r="1.28" style="fill:#8677a0"/><circle cx="1067.49" cy="1065.06" r="1.53" style="fill:#8677a0"/><circle cx="1099.57" cy="1092.04" r="0.94" style="fill:#8677a0"/><circle cx="1050.55" cy="1106.85" r="1.45" style="fill:#8677a0"/><circle cx="927.74" cy="939.45" r="1.7" style="fill:#8677a0"/><circle cx="1467.74" cy="908.47" r="1.53" style="fill:#8677a0"/><circle cx="1319.91" cy="929.15" r="0.77" style="fill:#8677a0"/><circle cx="1839.79" cy="995.66" r="1.66" style="fill:#8677a0"/><circle cx="1698.3" cy="1024.38" r="1.79" style="fill:#8677a0"/><circle cx="1775.15" cy="997.57" r="1.02" style="fill:#8677a0"/><circle cx="1773.74" cy="977.28" r="2.17" style="fill:#8677a0"/><circle cx="1783.06" cy="946.26" r="1.53" style="fill:#8677a0"/><circle cx="1131.32" cy="1188.68" r="1.15" style="fill:#8677a0"/><circle cx="1179.19" cy="1207.45" r="1.02" style="fill:#8677a0"/><circle cx="1201.66" cy="1213.06" r="1.79" style="fill:#8677a0"/><circle cx="1368.51" cy="1231.83" r="0.89" style="fill:#8677a0"/><circle cx="1418.94" cy="1220.98" r="1.53" style="fill:#8677a0"/><circle cx="1113.49" cy="1310.85" r="1.02" style="fill:#8677a0"/><circle cx="1186.38" cy="1263.23" r="2.17" style="fill:#8677a0"/><circle cx="991.28" cy="1323.11" r="1.15" style="fill:#8677a0"/><circle cx="1039.15" cy="1341.87" r="1.02" style="fill:#8677a0"/><circle cx="1061.62" cy="1347.49" r="1.79" style="fill:#8677a0"/><circle cx="1228.47" cy="1366.26" r="0.89" style="fill:#8677a0"/><circle cx="973.45" cy="1445.28" r="1.02" style="fill:#8677a0"/><circle cx="1046.34" cy="1397.66" r="2.17" style="fill:#8677a0"/><circle cx="1195.57" cy="1420.26" r="1.53" style="fill:#8677a0"/><circle cx="1169.66" cy="1397.4" r="1.91" style="fill:#8677a0"/><circle cx="1471.15" cy="1235.15" r="1.15" style="fill:#8677a0"/><circle cx="1519.02" cy="1253.91" r="1.02" style="fill:#8677a0"/><circle cx="1541.49" cy="1259.53" r="1.79" style="fill:#8677a0"/><circle cx="1708.34" cy="1278.3" r="0.89" style="fill:#8677a0"/><circle cx="1758.77" cy="1267.45" r="1.53" style="fill:#8677a0"/><circle cx="1453.32" cy="1357.32" r="1.02" style="fill:#8677a0"/><circle cx="1526.21" cy="1309.7" r="2.17" style="fill:#8677a0"/><circle cx="1675.45" cy="1332.3" r="1.53" style="fill:#8677a0"/><circle cx="1649.53" cy="1309.45" r="1.91" style="fill:#8677a0"/><circle cx="1674.57" cy="1195.98" r="1.98" style="fill:#8677a0"/><circle cx="1782.45" cy="1188.32" r="0.96" style="fill:#8677a0"/><circle cx="1809.96" cy="1269.15" r="1.19" style="fill:#8677a0"/><circle cx="1684.77" cy="1330.85" r="1.45" style="fill:#8677a0"/><circle cx="1807.32" cy="1436.21" r="1.79" style="fill:#8677a0"/><circle cx="1654.98" cy="1389.23" r="1.28" style="fill:#8677a0"/><circle cx="1626.98" cy="1408.55" r="1.53" style="fill:#8677a0"/><circle cx="1659.06" cy="1435.53" r="0.94" style="fill:#8677a0"/><circle cx="1610.04" cy="1450.34" r="1.45" style="fill:#8677a0"/><circle cx="1595.66" cy="1057.06" r="1.53" style="fill:#8677a0"/><circle cx="1540.17" cy="943.36" r="2.55" style="fill:#8677a0"/><circle cx="1723.83" cy="971.11" r="1.7" style="fill:#8677a0"/><circle cx="1561.45" cy="1183.87" r="2.38" style="fill:#8677a0"/><circle cx="1868.55" cy="978.64" r="1.15" style="fill:#8677a0"/><circle cx="1862.68" cy="1107.83" r="1.91" style="fill:#8677a0"/><path d="M1825.47,1021c.76,4.21,6.89,6.38,6.89,6.38a11.21,11.21,0,0,0-7.21,6.83A8.06,8.06,0,0,0,1819,1028,17.92,17.92,0,0,0,1825.47,1021Z" transform="translate(-0.06 0.91)" style="fill:#58417b"/></g><g id="Calque_4" data-name="Calque 4"><path d="M1266.62,1450l117.51,59.49-4.66,18.13c20.42,26,43.4,32.17,43.4,32.17l105.71,35.74,19.4,33.19c75.57,25,88.34,39.83,88.34,39.83h-28.6c-47.49-19.91-99.57-33.19-99.57-33.19-17.36,5.11-11.23,17.87-11.23,17.87l12.76,16.85h-30.13l-206.29-97.53-27.07-74Z" transform="translate(-0.06 0.91)" style="fill:#34156f"/></g><g id="Calque_10" data-name="Calque 10"><path d="M1528.83,1595l53.86,30.35a119.23,119.23,0,0,0,21.91,9.59c72.22,23.29,91,29.76,91,29.76l-4.08,5.62-183.32.25-28.35-25.37a13.08,13.08,0,0,1,1.82-20.86Z" transform="translate(-0.06 0.91)" style="fill:#1a0350"/></g><g id="Calque_27" data-name="Calque 27"><path d="M1688.63,1582.86l-13-8.25,3.59-4a3.41,3.41,0,0,0-2.57-4.5c-96.28-18.39-112.85-44.55-112.85-44.55-8.68-11-9.7-18.13-9.7-18.13l-42.39,24.77-72-18.13-29.87,7.91,23.51,18.68a18.08,18.08,0,0,0,8.64,3.73c142.37,20.73,228.13,39.56,246.15,43.66A.63.63,0,0,0,1688.63,1582.86Z" transform="translate(-0.06 0.91)" style="fill:#68419b"/></g><g id="Calque_28" data-name="Calque 28"><polygon points="1439.58 1511.23 1437.96 1529.83 1386.43 1524.64 1383.92 1510.38 1411.45 1491.1 1439.58 1511.23" style="fill:#47237b"/></g><g id="Calque_26" data-name="Calque 26"><path d="M1916.4,1653c-150.63-50.3-226-66.64-226-66.64L1674.7,1575l26.73-54,62.29,40.34,57.71,16.08,14.55,35.49,42.64-57.19,37.27,57.45Z" transform="translate(-0.06 0.91)" style="fill:#2a1061"/></g><g id="Calque_24" data-name="Calque 24"><path d="M1676.32,1510.1c-50-6.29-53.11-5.61-53.11-5.61-48.68.17-69.2-1-69.2-1,9.54,43.54,68.18,52.6,68.18,52.6l51.76,11.63a3,3,0,0,1,2,4.11l-1.53,3.33c14.33-1,23.37-2.51,29-3.85a9,9,0,0,0,6.54-11.38l-9.5-31.75Z" transform="translate(-0.06 0.91)" style="fill:#401b70"/></g><g id="Calque_16" data-name="Calque 16"><path d="M3.14,1624.34l0,35.51c8.17-26.3,10.79-29.58,10.79-29.58C11.21,1623.89,3.14,1624.34,3.14,1624.34Z" transform="translate(-0.06 0.91)" style="fill:#32126f"/></g><g id="Calque_15" data-name="Calque 15"><path d="M24.23,1586.61c-4.95-2.08-7.94-3.24-9.74-3.89a6.43,6.43,0,0,0-4.89.21l-4.87,2.23a3.92,3.92,0,0,0-2.28,3.63L3,1624.66c6.39-.77,10.85,5.61,10.85,5.61Z" transform="translate(-0.06 0.91)" style="fill:#5d3791"/></g><g id="Calque_38" data-name="Calque 38"><path d="M1414.58,1549.13a66.82,66.82,0,0,0-2.48-34.3.9.9,0,0,0-1.45-.36c-9.07,8-9.35,28.87-9.35,28.87a22.33,22.33,0,0,1,7.83,10Z" transform="translate(-0.06 0.91)" style="fill:#512390"/></g><g id="Calque_20" data-name="Calque 20"><path d="M1384.38,1509.25l34.75,49.45c-23.23-12.23-33.3-20.33-37.65-25.24a9,9,0,0,1-1.35-10Z" transform="translate(-0.06 0.91)" style="fill:#7d4fa0"/></g><g id="Calque_3" data-name="Calque 3"><path d="M1480.32,1668.06c-90.38-46-208.34-97.27-208.34-97.27l-56.18-26.65a25.68,25.68,0,0,0-7.47-2.24l-222-30.86-284.17,9.19-477.19,37.53-84.26-44.42c-40.6-23-81.54-24-81.54-24C70.61,1510,71,1510.27,71,1510.27l6.89,32.94,13,118c232.09-2.3,236.68,6.89,236.68,6.89Z" transform="translate(-0.06 0.91)" style="fill:#290965"/></g><g id="Calque_17" data-name="Calque 17"><path d="M371.64,1509.59l-54.63-5.5a37.61,37.61,0,0,0-15.34,1.61l-63,20.58c79.83-6.3,96.4,2.38,96.4,2.38C365.85,1512.83,371.64,1509.59,371.64,1509.59Z" transform="translate(-0.06 0.91)" style="fill:#663a95"/></g><g id="Calque_6" data-name="Calque 6"><path d="M778.83,1508.23,707.17,1481a21.7,21.7,0,0,0-15.91.45l-53.39,22.77a23,23,0,0,1-16.6.56l-92.35-32.13-27.69,13.59a48.79,48.79,0,0,1-22.08,5l-5.49-.07a52.53,52.53,0,0,0-20.75,4l-40.08,16.63c164.43,36.42,228.77,14.29,228.77,14.29l126.12-3.95Z" transform="translate(-0.06 0.91)" style="fill:#5a348e"/></g><g id="Calque_2" data-name="Calque 2"><path d="M1915.13,1559.81a218.08,218.08,0,0,1-25.73-40.5,4.35,4.35,0,0,0-4.57-2.42l-9.15,1.39a5.71,5.71,0,0,0-4.85,5.47,72.44,72.44,0,0,0,.52,11.37,2.34,2.34,0,0,1-4.06,1.86c-11.9-12.93-17.68-18.66-19.87-20.76a5.79,5.79,0,0,0-2.49-1.41l-28.86-7.9a4.55,4.55,0,0,0-5.64,3.43,121.76,121.76,0,0,1-5.6,18.32l-20.68-7.09c-9.94-5.48-14.41-12.46-17.45-16.07a8.81,8.81,0,0,0-6.25-3.11l-26.47.22-40,18.9,43.66,39.32,48.26,15.32c-13.09,4.78-14,10.17-12.85,13.54a7.78,7.78,0,0,0,3.46,4.1c34.85,20.59,51.85,28.85,59.21,32a5.54,5.54,0,0,0,7.12-2.52l28.21-53.84a4.62,4.62,0,0,1,7.62-.83l36.42,43.25Z" transform="translate(-0.06 0.91)" style="fill:#381662"/><polygon points="1411.54 1491.11 1384.26 1510.42 1321.96 1479.28 1356.17 1474.93 1411.54 1491.11" style="fill:#401b70"/><path d="M1266.6,1450l29,52.51a18.66,18.66,0,0,1-13.88,27.78h0a12.77,12.77,0,0,0-11,14.64l10.29,29.91c-26.49-12.45-80.56-23.52-91.49-22.72q-3,.23-6.06.19l-27.22-.26a76.91,76.91,0,0,0-10,.58c-63.14,7.54-128.18,2.64-142.81,1.36q-2.91-.26-5.84-.27c-23.14-.17-28.18-6.48-28.18-6.48-3.75-7.15,6.12-6.81,6.12-6.81,41.54,4.09,48-7.15,48-7.15,4.43-4.08-24.85-7.83-24.85-7.83l-100.08-.68-67.75,1c-46.34,3.72-65.28-3.37-70.14-5.74a7.38,7.38,0,0,1-2.66-2.06c-1.93-2.42-1-4.5.33-6a8.83,8.83,0,0,1,4.89-2.59C865.21,1490.17,1028,1474.7,1028,1474.7c31.32,16.68,26.89,31.32,26.89,31.32-15.32,0-20.42-1-20.42-1,14.3,14.64,21.44,16,21.44,16,17.37-10.9,32.69,8.85,32.69,8.85l-33.37-56.51,4.63-6.26a2.82,2.82,0,0,1,3-1l15.13,4.23a20.57,20.57,0,0,0,16.12-2.17l3.75-2.25a6.39,6.39,0,0,1,4.83-.72l22,5.5a24.31,24.31,0,0,0,8.15.63c91.22-8.23,92.55-11.54,92.55-11.54l17.7.34c.68,7.15,5.1,4.09,5.1,4.09Z" transform="translate(-0.06 0.91)" style="fill:#401b70"/><path d="M707.89,1520.22l-102.09-2.61a79.78,79.78,0,0,0-37.75,8.41l-.39.19a3.45,3.45,0,0,0-1.77,2.09,3,3,0,0,1-3.87,2.08l-1.79-.62a6.7,6.7,0,0,0-4.51.31,1,1,0,0,1-.47.06c-26.81-3-46.7-6-60.71-9.25a88,88,0,0,0-15.41-2.18l-27.28-1.5c-1.2-.06-2.41-.18-3.6-.34l-65.81-9a15,15,0,0,0-6.85.68c-32.55,11.09-57.8,32-57.8,32l-3.43-11.06a13.67,13.67,0,0,0-14.12-9.59c-28.61,2.2-49,4.69-57.38,5.78a69.69,69.69,0,0,1-9,.61,253.41,253.41,0,0,1-36.3-2.22,68.69,68.69,0,0,1-20-6.21c-39.5-19.21-71.82-19.47-71.82-19.47,29.55,11.08,56.3,35.32,71.15,50.61a53.82,53.82,0,0,0,32.2,15.91L346.7,1581.5q3.76.45,7.56.57l61.83,1.84a21.08,21.08,0,0,0,5.54-.57c166.74-40.13,231.68-41.09,247.49-40.47a13.42,13.42,0,0,0,13.48-9.63l0-.1a2.26,2.26,0,0,1,1.6-1.58l24.23-6.34A2.54,2.54,0,0,0,707.89,1520.22Z" transform="translate(-0.06 0.91)" style="fill:#401b70"/><path d="M77.4,1539.63l35.21,70.59a12.37,12.37,0,0,1,.55,9.71l-15,41.24-95.46.32c8.17-38.13,22-46.19,22-46.19Z" transform="translate(-0.06 0.91)" style="fill:#401b70"/></g><g id="Calque_5" data-name="Calque 5"><path d="M1213.36,1518.94c-9.28-2.3-16.35-4.35-21.35-5.92a47.63,47.63,0,0,1-16.2-8.85l-38.44-32a5.33,5.33,0,0,0-3.4-1.22h-5.22l1.2,1.86a1.79,1.79,0,0,1-2,2.69l-3.13-.85a2.63,2.63,0,0,0-2.88,4c.54.82,1,1.57,1.41,2.27a2.05,2.05,0,0,1-3.29,2.41c-7.91-8.69-13.93-13.39-17.29-15.67a.48.48,0,0,0-.61.72,43.86,43.86,0,0,1,7.25,10.42c3.36,7.13-4,14.64-11.15,11.25a69.17,69.17,0,0,1-16.88-11.89,1,1,0,0,1,1.15-1.59l6.4,3.34a.65.65,0,0,0,.74-1.05c-11-9.91-26.66-12.81-26.76-12.83h0c25.18,32.49,45.37,47.25,57.49,54.3a48.82,48.82,0,0,0,17.55,6.17,54.52,54.52,0,0,1,17.51,6,90.57,90.57,0,0,0,22.15,8.32,298.73,298.73,0,0,0,54.1,7.36,1.38,1.38,0,0,0,.39-2.72c-20.7-5.26-32.12-10.61-38.42-14.93a5.18,5.18,0,0,1,3.79-9.38c5.58.94,11.44,2.5,13.52,3.07a5.17,5.17,0,0,0,1.83.18l.22,0A2.75,2.75,0,0,0,1213.36,1518.94Z" transform="translate(-0.06 0.91)" style="fill:#34156f"/><path d="M1055.72,1473.34c-24-.17-28.25,1.36-28.25,1.36,14.51,9.18,21.58,16.59,25,21.9a5.79,5.79,0,0,1-5.44,8.84l-11.44-1.51a1.67,1.67,0,0,0-1.21,2.94c3.85,3.21,8.46,8.08,11,10a25.44,25.44,0,0,0,17.07,4.85c7.62-.55,19.89,5.36,24.38,7.91a1.91,1.91,0,0,0,2.59-2.63Z" transform="translate(-0.06 0.91)" style="fill:#34146f"/></g><g id="Calque_7" data-name="Calque 7"><polygon points="652.26 1498.93 537.87 1476.47 629.28 1510.42 652.26 1498.93" style="fill:#543288"/></g><g id="Calque_22" data-name="Calque 22"><path d="M1734,1502.61c-1,0-57.53,7.49-57.53,7.49,7.15,16.51,19.23,20.43,19.23,20.43l.14,0a16.05,16.05,0,0,1,15.83,7.76c17.16,29.2,63.78,37.44,74,38.73a.9.9,0,0,0,.83-1.45c-25.51-34-49.42-43.49-49.42-43.49-.49-.45-.17-.93.64-1.42a11.69,11.69,0,0,0,3.65-16.18Z" transform="translate(-0.06 0.91)" style="fill:#46237a"/></g><g id="Calque_8" data-name="Calque 8"><path d="M528.41,1529.64l.33.37a39.71,39.71,0,0,0,29.2,13.53c21.91.35,28.25,5.29,28.25,5.29-46,3.22-69.25,4.78-80.49,5.51a32.35,32.35,0,0,1-17.93-4.07c-14.09-7.9-22.67-12.44-27.89-15a9.31,9.31,0,0,1-4.43-12l1.13-2.69a5.2,5.2,0,0,1,5.14-3.18l27.71,1.8,34.38,7.68A8.62,8.62,0,0,1,528.41,1529.64Z" transform="translate(-0.06 0.91)" style="fill:#34156f"/></g><g id="Calque_9" data-name="Calque 9"><path d="M743.09,1667.23C687.44,1645.13,628,1643.8,603,1644.82a170.05,170.05,0,0,1-29.06-1.34C409.44,1622,340,1585.34,340,1585.34l-21.83,4.76c38.84,27.56,58.86,33.87,66,35.32a58.71,58.71,0,0,1,8.14,2.24c91.77,33.16,104.59,40.06,104.59,40.06Z" transform="translate(-0.06 0.91)" style="fill:#3c1776"/><path d="M832.2,1564.37c9.35-.49,11.1,1.66,11,3.44a2.67,2.67,0,0,1-2.35,2.41c-3.11.44-5.62.77-7.65,1a1.71,1.71,0,0,0,0,3.39c1.83.21,3.76.39,5.55.54a83.88,83.88,0,0,0,12.78,0c42.86-3.09,65-2.68,76.31-1.59,8,.77,7.51,12.66-.53,12.74h0c-32.17-1.53-38.55,1.79-38.55,1.79l-.06,0a1.39,1.39,0,0,0,.73,2.56,88.48,88.48,0,0,1,9.06.7,2.55,2.55,0,0,1,0,5c-37.63,5.86-149.17,2.39-149.17,2.39-7.4-.26-4.34-4.34-4.34-4.34l.17-.14a4.12,4.12,0,0,0-2.61-7.19c-46.25-1.65-42-5.44-42-5.44-3.58-6.12,15.31-7.91,15.31-7.91,74.45-10.2,110.37-9.6,115.12-9.47A11.83,11.83,0,0,0,832.2,1564.37Z" transform="translate(-0.06 0.91)" style="fill:#381472"/></g><g id="Calque_11" data-name="Calque 11"><path d="M1482.36,1669.59c-126.89-82.46-156.25-86.55-156.25-86.55-34.47-10-45.24-8.38-45.24-8.38C1371.26,1622.66,1482.36,1669.59,1482.36,1669.59Z" transform="translate(-0.06 0.91)" style="fill:#1a0350"/></g><g id="Calque_33" data-name="Calque 33"><path d="M329.34,1489.5l-6.38-20a1.09,1.09,0,0,0-2.13.42c1.45,21.61,2.77,27.16,2.77,27.16C327.55,1489.63,329.34,1489.5,329.34,1489.5Z" transform="translate(-0.06 0.91)" style="fill:#35137e"/></g><g id="Calque_32" data-name="Calque 32"><path d="M349.32,1518.51c-6.73-22.43-14.67-28.84-17.91-30.59a4.71,4.71,0,0,0-3-.5,8.35,8.35,0,0,0-2.36.73c-7.65,3.72-7.14,18.21-7.14,18.21-.85,14.3-.68,17.7-.68,17.7,15.49,3.58,17.19,4.43,17.19,4.43C344.23,1521.85,349.32,1518.51,349.32,1518.51Z" transform="translate(-0.06 0.91)" style="fill:#5c279c"/></g><g id="Calque_18" data-name="Calque 18"><path d="M377.63,1507.88h0a6.65,6.65,0,0,0-10.39-3.38c-26.25,19.89-32.6,24.35-32.6,24.35C375,1510,377.63,1507.88,377.63,1507.88Z" transform="translate(-0.06 0.91)" style="fill:#93609a"/></g><g id="Calque_25" data-name="Calque 25"><path d="M1623,1504.75a36.91,36.91,0,0,0,18.83,22.28,9.1,9.1,0,0,0,5.71.92l1.4-.22a5.6,5.6,0,0,1,5.22,1.91c4.89,5.9,14.79,10.31,20.35,12.44a1.64,1.64,0,0,1-.4,3.16,107.31,107.31,0,0,1-15,0H1659a2.08,2.08,0,0,0-.48,4.07c.75.22,1.44.43,2,.65a2.6,2.6,0,0,1-.61,5c-14.31,1.2-31.19-.65-42.24-2.29a31.6,31.6,0,0,1-21.84-13.83c-7.16-10.87-5.7-17.48-5.7-17.48Z" transform="translate(-0.06 0.91)" style="fill:#46227b"/></g><g id="Calque_19" data-name="Calque 19"><path d="M1266.57,1450l-50.79,12,26.25,7a8.6,8.6,0,0,0,8.34-2.3Z" transform="translate(-0.06 0.91)" style="fill:#8f5c9c"/></g><g id="Calque_21" data-name="Calque 21"><path d="M1915.26,1559.68l.12-13.15c-11.39-13.22-20.79-20.23-26.25-23.64a25.16,25.16,0,0,0-9.81-3.52,257.58,257.58,0,0,0-30.51-2.06,39.23,39.23,0,0,1-8.5-1l-20.37-4.84a27.91,27.91,0,0,0-16.8,1.24l-20.52,8.21,11.18,18.37a29.31,29.31,0,0,0,22.47,13.94l38.59,3.36a33.75,33.75,0,0,1,28,20l18.51,42.2,14.55-6.64Z" transform="translate(-0.06 0.91)" style="fill:#2b125d"/></g><g id="Calque_23" data-name="Calque 23"><path d="M1696.7,1516.3c-3-2.18-7.06-3-10.31-3.22a3.71,3.71,0,0,0-3.36,5.76,17.55,17.55,0,0,0,8.82,6.41,6,6,0,0,0,2.26.31h.23a4.92,4.92,0,0,0,3.43-8.13c-.36-.42-.66-.73-.82-.9Z" transform="translate(-0.06 0.91)" style="fill:#2b125d"/><path d="M1623.05,1504.74l-32.82,20.57-8.61-8.14C1613.11,1503.89,1623.05,1504.74,1623.05,1504.74Z" transform="translate(-0.06 0.91)" style="fill:#1f035d"/><path d="M1554.06,1503.49,1511.72,1528l-72-17.71-28.13-20.09C1548.61,1499.72,1554.06,1503.49,1554.06,1503.49Z" transform="translate(-0.06 0.91)" style="fill:#311369"/></g><g id="Calque_29" data-name="Calque 29"><path d="M1915.89,1652.23l-.25,18.38-223.92.26-98.29-39.23c101.44,26.55,120.17,27.23,120.17,27.23,37.1,9.19,40.17,9.53,40.17,9.53l61.61-.34-14.29-28.93L1734,1614.27l-53.44.34c-41.54-44.59-104.52-52.76-104.52-52.76C1821.85,1605.76,1915.89,1652.23,1915.89,1652.23Z" transform="translate(-0.06 0.91)" style="fill:#1f035d"/></g><g id="Calque_30" data-name="Calque 30"><path d="M1801.26,1638.61l14.46,29.45c-59.4,1-61.25-.45-61.25-.45,29.45-3.06,19-7.85,19-7.85-3.92-15.15-11.49-11.68-11.49-11.68-8-2.89-6-11.81-6-11.81,1.53-1.53-3.19-3.44-3.19-3.44-23-1.36-22.81-11.24-22.81-11.24,0-2.55,3-6.91,3-6.91Z" transform="translate(-0.06 0.91)" style="fill:#401b70"/></g><g id="Calque_31" data-name="Calque 31"><path d="M1714.19,1658.87c13.75,1.36,21.75.79,26.31-.11a5.74,5.74,0,0,0,2.76-9.82,30.16,30.16,0,0,0-3.92-3.09c-28.08-20.3-59.36-31.41-59.36-31.41l53,.26-.15.22a9,9,0,0,0,3.63,13.12,39.8,39.8,0,0,0,17.34,3.53,8.84,8.84,0,0,1,1.15,0l.91.13a3.16,3.16,0,0,1,2.39,4.17c-.74,2.1.48,4.1,1.78,5.51a13.09,13.09,0,0,0,3.44,2.61,63.68,63.68,0,0,1,11.76,8,8.19,8.19,0,0,1-3.59,14c-14.58,3.6-20.53,1.85-20.53,1.85Z" transform="translate(-0.06 0.91)" style="fill:#8a579d"/></g><g id="Calque_12" data-name="Calque 12"><path d="M1063.89,1648.36l.14.16a5.85,5.85,0,0,1-3.36,9.49,16.37,16.37,0,0,1-4.57.31,3.44,3.44,0,0,1-1.11-6.55,41.65,41.65,0,0,0,6.71-3.66A1.61,1.61,0,0,1,1063.89,1648.36Z" transform="translate(-0.06 0.91)" style="fill:#1a0350"/><path d="M965.4,1538.27l-.31-.14a51.31,51.31,0,0,0-25-4.42c-62.76,4.54-118.54-7.52-118.54-7.52s176-4.77,179.74-5.11c2.35-.21,16.58,3.45,26.89,6.22a6.54,6.54,0,0,1,2.93,10.94l-5.31,5.31-42.42-1.11A46.42,46.42,0,0,1,965.4,1538.27Z" transform="translate(-0.06 0.91)" style="fill:#1a0350"/><path d="M770.18,1656.16a11.32,11.32,0,0,0-8.28-2.07,7.71,7.71,0,0,0-2.85,1,25.1,25.1,0,0,0-2.61,1.74,2,2,0,0,0,1.24,3.64,59.85,59.85,0,0,0,11.67-.81A2,2,0,0,0,770.18,1656.16Z" transform="translate(-0.06 0.91)" style="fill:#1a0350"/><path d="M464.56,1537.43c22.13,3.32,30.36,15.74,30.36,15.74C480.23,1547.68,464.56,1537.43,464.56,1537.43Z" transform="translate(-0.06 0.91)" style="fill:#1a0350"/><path d="M416.06,1583.64v-.35a12.85,12.85,0,0,1,6.88-11.36,40.75,40.75,0,0,0,4.61-2.82,3.23,3.23,0,0,0-2.34-5.8,98.52,98.52,0,0,0-12.12,2.71A570.47,570.47,0,0,1,347,1581C405.6,1584.74,416.06,1583.64,416.06,1583.64Z" transform="translate(-0.06 0.91)" style="fill:#1a0350"/><path d="M335.51,1528.49c-21.28-9.53-32.08-8.39-32.08-8.39l10.68,28.81Z" transform="translate(-0.06 0.91)" style="fill:#1a0350"/><path d="M1132.61,1498.35a217.55,217.55,0,0,0,15.89,17.59,8.46,8.46,0,0,0,5.61,2.32l9,.21a1.08,1.08,0,0,0,.35-2.1,29.08,29.08,0,0,0-5-1,11.25,11.25,0,0,1-6.86-3.62c-8-8.81-13.78-13.13-17.46-15.25A1.25,1.25,0,0,0,1132.61,1498.35Z" transform="translate(-0.06 0.91)" style="fill:#1a0350"/><path d="M347,1581c-14.19,5.49-38,4-42.8,3.64-.6,0-1.2-.07-1.8-.06a117.27,117.27,0,0,0-26.12,3.36c-.47.12-.94.27-1.4.43-31.67,11.05-62.73,18.9-74.17,21.67a22.49,22.49,0,0,1-9.17.28l-44.76-8a8.22,8.22,0,0,0-9.65,8.09h0a4.84,4.84,0,0,0,1,3l13.75,17.47a38.48,38.48,0,0,0,20.3,13.36l30.19,8a10.11,10.11,0,0,0,6.62-.5l44.78-19.53-43.25,8.91a1.91,1.91,0,0,1-1.7-3.27c18.18-16.73,46-28.37,46-28.37,66.13-22.46,106.72-27.78,106.72-27.78Z" transform="translate(-0.06 0.91)" style="fill:#1a0350"/><path d="M95.72,1614.32c-1.41,4.85-5.47,8.34-7.09,9.58a3.15,3.15,0,0,0-1.17,1.64c-.64,2.32,2,1.93,2,1.93,15.83-6.77,16.47-12,16.47-12,1-4.48-1.19-5.51-2.85-5.69a5.74,5.74,0,0,0-2.52.38C95.61,1612,95.72,1614.32,95.72,1614.32Z" transform="translate(-0.06 0.91)" style="fill:#1a0350"/><path d="M71,1511.81l-6.9,28.08c36.24-.37,55.58-2.32,63.56-3.39a.93.93,0,0,0,.1-1.82,296.43,296.43,0,0,0-32.86-6.48A21.29,21.29,0,0,1,83.49,1523Z" transform="translate(-0.06 0.91)" style="fill:#1a0350"/><path d="M52.7,1661.71c18.64-4.47,12.26-8.07,12.26-8.07-3.65-.58-11.5.94-15.16,1.73a11.71,11.71,0,0,1-4.53.1l-.15,0a2,2,0,0,1-.46-3.7c11.29-5.47,16.73-9.09,19.32-11.18a1.49,1.49,0,0,0-1.15-2.63c-.58.08-1.11.19-1.47.27a3.93,3.93,0,0,0-.87.31c-27.46,13.92-57.4,21.33-57.4,21.33l-.37,1.64Z" transform="translate(-0.06 0.91)" style="fill:#1a0350"/></g><g id="Calque_14" data-name="Calque 14"><path d="M59.12,1489.33c-6.8,5.28-11.06,21.11-11.06,21.11-2.28,9.13-4.06,15.4-5.37,19.64a43.16,43.16,0,0,1-5.69,11.7c-5.63,8.16-5.11,15.64-5.11,15.64.15,2.1.19,4.07.16,5.89a37.1,37.1,0,0,1-5.36,18c-5,8.53-7.39,23.49-7.39,23.49,18.21-20.43,32.34-75.66,32.34-75.66C60,1501.93,59.12,1489.33,59.12,1489.33Z" transform="translate(-0.06 0.91)" style="fill:#b791ae"/></g><g id="Calque_13" data-name="Calque 13"><path d="M59.13,1489.34C34.62,1589.76,19.3,1604.4,19.3,1604.4c-5.62,11.41-5.45,24.34-5.45,24.34,67.75-65.36,63.49-89.53,63.49-89.53l-4.82-22.63A40.38,40.38,0,0,0,68.1,1505Z" transform="translate(-0.06 0.91)" style="fill:#8d5a9c"/></g><g id="Calque_37" data-name="Calque 37"><path d="M283.26,1563.21l-3.64-12c2.17,11.94,2.3,12.7,2.3,12.7C282.87,1563.21,283.26,1563.21,283.26,1563.21Z" transform="translate(-0.06 0.91)" style="fill:#4f1a9c"/><path d="M323.37,1472l-3.64-12c2.17,11.93,2.3,12.7,2.3,12.7C323,1472,323.37,1472,323.37,1472Z" transform="translate(-0.06 0.91)" style="fill:#4f1a9c"/></g><g id="Calque_36" data-name="Calque 36"><path d="M288.94,1576.53c-3.39-15.38-6.32-16.21-6.32-16.21-2,0-1.6,3.64-1.6,3.64,1.6,12.57,3.38,13.85,3.38,13.85A19.94,19.94,0,0,1,288.94,1576.53Z" transform="translate(-0.06 0.91)" style="fill:#35137e"/></g><g id="Calque_35" data-name="Calque 35"><path d="M296.66,1612.53a31.63,31.63,0,0,0,6-.62,1.86,1.86,0,0,0,1.41-2.24c-4.68-20.92-10.45-30.44-13.53-34.3a5.91,5.91,0,0,0-6.45-2,3.34,3.34,0,0,0-2.49,2.54c-2.05,15.45,3.06,36.77,3.06,36.77Z" transform="translate(-0.06 0.91)" style="fill:#4f1a9c"/></g><g id="Calque_34" data-name="Calque 34"><path d="M257.26,1589.93c32.27-4.82,48.11,22.81,53.39,34.82a10.65,10.65,0,0,1-3.9,13.19C295.21,1645.56,271,1651,271,1651c-17.64,3.82-28.91,5.11-35.29,5.51a9.64,9.64,0,0,1-10.22-8.37c-.7-5.84.11-13.26,1.18-19.52a54.08,54.08,0,0,1,14.95-29.25C250.5,1590.6,257.26,1589.93,257.26,1589.93Z" transform="translate(-0.06 0.91)" style="fill:#4f1a9c;stroke:#865499;stroke-miterlimit:10;stroke-width:3px"/></g><g id="Calque_66" data-name="Calque 66"><path d="M1423.42,1538.36c12.32,2.92,13.81,15.35,13.92,20.12a3.7,3.7,0,0,1-2.76,3.68c-5,1.27-14.93-.31-14.93-.31a82.28,82.28,0,0,1-14.32-3.43,2.43,2.43,0,0,1-1.59-2.49c.18-2.32,1.73-5.4,3.25-7.91a20.92,20.92,0,0,1,9.44-8.46C1420.89,1537.62,1423.42,1538.36,1423.42,1538.36Z" transform="translate(-0.06 0.91)" style="fill:#4f1a9c;stroke:#865499;stroke-miterlimit:10"/></g><g id="Calque_40" data-name="Calque 40"><path d="M1426.56,1539.23c10.85,11.5,7.23,23.27,7.23,23.27l-.92-.16c.11-.77.21-1.49.28-2.16a24.21,24.21,0,0,0-4.31-17,19.56,19.56,0,0,0-2.92-3.31c5.71,17.55,3.15,22.52,3.15,22.52l-1.08.09c1.89-8.12-3.37-22.76-3.37-22.76-.95,4.58-3.76,22.16-3.76,22.16l-1.37-.35c3-20.28,4.38-22.42,4.38-22.42a25.31,25.31,0,0,0-6.52,7.48,27.48,27.48,0,0,0-2.81,6.49c-1.27,4.37-2,7.18-2,7.18l-1-.35c2.3-12.92,7.4-17.56,7.4-17.56a39.22,39.22,0,0,0,2.86-3.09c-8.54,3.58-11.09,10.08-11.09,10.08a40.43,40.43,0,0,0-2.82,9.63l-1.21-.49c1.68-9.67,5.28-13.18,5.28-13.18a21.48,21.48,0,0,1,6.79-5.48c-8.58,3.82-11.1,9.71-11.1,9.71-1.62,4-3.2,8.34-3.2,8.34a31.78,31.78,0,0,1,5.47-13.44,8.88,8.88,0,0,1,2.93-2.52,74.36,74.36,0,0,1,6.79-3.41A10.75,10.75,0,0,1,1426.56,1539.23Z" transform="translate(-0.06 0.91)" style="fill:#865499"/></g><g id="Calque_39" data-name="Calque 39"><path d="M264.36,1589.55c37.79,17.49,40.47,49.79,40.47,49.79l-2.43.51c-.46-2-.94-3.85-1.4-5.55a63.69,63.69,0,0,0-27.16-37.23,50.81,50.81,0,0,0-10.37-5.22c31.15,37.28,29.74,52,29.74,52l-2.55,1.27c-3.32-21.7-30.51-52.34-30.51-52.34,2.17,12.13,12.51,57.83,12.51,57.83l-3.7.51c-12.64-52.47-11.24-59.1-11.24-59.1-5,8-7.46,17.36-8.63,24.67a73.46,73.46,0,0,0-.5,18.62c1.16,11.92,2.11,19.52,2.11,19.52l-2.81.12c-7-33.83.9-50.17.9-50.17a96.19,96.19,0,0,0,4-10.34c-17.37,17.11-17.24,35.49-17.24,35.49a106.9,106.9,0,0,0,2.55,26.3h-3.44c-5.36-25.28,0-37.4,0-37.4,4.85-13.66,11.23-20,11.23-20-17.23,17.75-17.62,34.6-17.62,34.6,0,11.49-.12,22-.12,22a75.83,75.83,0,0,1,.66-36.64,23.52,23.52,0,0,1,4.71-9c10.67-12.71,13.27-15,13.27-15C254.28,1588.79,264.36,1589.55,264.36,1589.55Z" transform="translate(-0.06 0.91)" style="fill:#865499"/></g><g id="Calque_54" data-name="Calque 54"><circle cx="269.87" cy="231.36" r="17.96" style="fill:#181f4c"/><circle cx="1816.47" cy="780.43" r="27.96" style="fill:#181f4c"/></g><g id="Calque_55" data-name="Calque 55"><circle cx="213.64" cy="644.91" r="1.98" style="fill:#8677a0"/><circle cx="321.51" cy="637.26" r="0.96" style="fill:#8677a0"/><circle cx="349.02" cy="718.09" r="1.19" style="fill:#8677a0"/><circle cx="223.83" cy="779.79" r="1.45" style="fill:#8677a0"/><circle cx="452.6" cy="757.83" r="2.13" style="fill:#8677a0"/><circle cx="523.32" cy="777.49" r="1.02" style="fill:#8677a0"/><circle cx="435.57" cy="826.09" r="1.28" style="fill:#8677a0"/><circle cx="346.38" cy="885.15" r="1.79" style="fill:#8677a0"/><circle cx="194.04" cy="838.17" r="1.28" style="fill:#8677a0"/><circle cx="166.04" cy="857.49" r="1.53" style="fill:#8677a0"/><circle cx="198.13" cy="884.47" r="0.94" style="fill:#8677a0"/><circle cx="149.11" cy="899.28" r="1.45" style="fill:#8677a0"/><circle cx="134.72" cy="506" r="1.53" style="fill:#8677a0"/><circle cx="79.23" cy="392.3" r="2.55" style="fill:#8677a0"/><circle cx="15.91" cy="369.49" r="1.87" style="fill:#8677a0"/><circle cx="262.89" cy="420.04" r="1.7" style="fill:#8677a0"/><circle cx="189.79" cy="252.98" r="1.45" style="fill:#8677a0"/><circle cx="116.6" cy="244.3" r="1.28" style="fill:#8677a0"/><circle cx="45.53" cy="207.79" r="1.19" style="fill:#8677a0"/><circle cx="55.4" cy="204.72" r="1.19" style="fill:#8677a0"/><circle cx="38.47" cy="268.81" r="1.11" style="fill:#8677a0"/><circle cx="57.7" cy="131.62" r="0.77" style="fill:#8677a0"/><circle cx="149.19" cy="83.36" r="1.53" style="fill:#8677a0"/><circle cx="179.74" cy="126.68" r="1.45" style="fill:#8677a0"/><circle cx="70.98" cy="53.32" r="1.28" style="fill:#8677a0"/><circle cx="195.57" cy="63.7" r="1.79" style="fill:#8677a0"/><circle cx="309.57" cy="130.38" r="1.66" style="fill:#8677a0"/><circle cx="341.87" cy="149.66" r="1.79" style="fill:#8677a0"/><circle cx="281.23" cy="200.85" r="1.66" style="fill:#8677a0"/><circle cx="225.45" cy="139.7" r="1.79" style="fill:#8677a0"/><circle cx="373.91" cy="236.34" r="2.68" style="fill:#8677a0"/><circle cx="482.68" cy="198.3" r="1.66" style="fill:#8677a0"/><circle cx="519.45" cy="247.57" r="1.15" style="fill:#8677a0"/><circle cx="606" cy="267.74" r="1.4" style="fill:#8677a0"/><circle cx="571.28" cy="313.7" r="1.4" style="fill:#8677a0"/><circle cx="644.55" cy="180.94" r="1.66" style="fill:#8677a0"/><circle cx="605.74" cy="140.34" r="1.4" style="fill:#8677a0"/><circle cx="723.32" cy="52.64" r="2.81" style="fill:#8677a0"/><circle cx="760.08" cy="60.04" r="1.02" style="fill:#8677a0"/><circle cx="829.4" cy="40.77" r="1.15" style="fill:#8677a0"/><circle cx="877.28" cy="59.53" r="1.02" style="fill:#8677a0"/><circle cx="899.74" cy="65.15" r="1.79" style="fill:#8677a0"/><circle cx="958.98" cy="7.96" r="1.53" style="fill:#8677a0"/><circle cx="1066.6" cy="83.91" r="0.89" style="fill:#8677a0"/><circle cx="1117.02" cy="73.06" r="1.53" style="fill:#8677a0"/><circle cx="1126.21" cy="15.36" r="2.81" style="fill:#8677a0"/><circle cx="1222.72" cy="30.17" r="2.81" style="fill:#8677a0"/><circle cx="1277.36" cy="17.66" r="1.79" style="fill:#8677a0"/><circle cx="1345.4" cy="29.79" r="1.91" style="fill:#8677a0"/><circle cx="1373.62" cy="12.55" r="1.79" style="fill:#8677a0"/><circle cx="1342.47" cy="95.79" r="1.28" style="fill:#8677a0"/><circle cx="1366.72" cy="107.79" r="1.79" style="fill:#8677a0"/><circle cx="1387.66" cy="173.66" r="1.02" style="fill:#8677a0"/><circle cx="1460.55" cy="126.04" r="2.17" style="fill:#8677a0"/><circle cx="855.19" cy="183.23" r="1.91" style="fill:#8677a0"/><circle cx="824.3" cy="173.53" r="1.66" style="fill:#8677a0"/><circle cx="830.55" cy="266.6" r="3.06" style="fill:#8677a0"/><circle cx="853.02" cy="326.85" r="1.02" style="fill:#8677a0"/><circle cx="918.77" cy="322.64" r="1.15" style="fill:#8677a0"/><circle cx="970.98" cy="346" r="1.53" style="fill:#8677a0"/><circle cx="933.7" cy="387.11" r="1.28" style="fill:#8677a0"/><circle cx="870.51" cy="403.83" r="2.17" style="fill:#8677a0"/><circle cx="984.85" cy="540.04" r="2.04" style="fill:#8677a0"/><circle cx="847.4" cy="471.11" r="2.04" style="fill:#8677a0"/><circle cx="912.89" cy="451.83" r="1.91" style="fill:#8677a0"/><circle cx="1004.94" cy="427.7" r="2.55" style="fill:#8677a0"/><circle cx="994.34" cy="290.72" r="1.15" style="fill:#8677a0"/><circle cx="970.34" cy="223.57" r="1.15" style="fill:#8677a0"/><circle cx="1028.68" cy="208.89" r="1.79" style="fill:#8677a0"/><circle cx="1076.55" cy="184.26" r="1.4" style="fill:#8677a0"/><circle cx="1073.36" cy="171.62" r="1.53" style="fill:#8677a0"/><circle cx="1609.79" cy="148.64" r="1.53" style="fill:#8677a0"/><circle cx="1583.87" cy="125.79" r="1.91" style="fill:#8677a0"/><circle cx="1624.08" cy="112.64" r="1.28" style="fill:#8677a0"/><circle cx="1553.87" cy="66.43" r="2.04" style="fill:#8677a0"/><circle cx="1468.6" cy="54.68" r="1.53" style="fill:#8677a0"/><circle cx="1570.98" cy="73.57" r="1.79" style="fill:#8677a0"/><circle cx="1592.04" cy="62.21" r="0.89" style="fill:#8677a0"/><circle cx="1606.72" cy="52.13" r="2.04" style="fill:#8677a0"/><circle cx="1667.11" cy="28.77" r="2.43" style="fill:#8677a0"/><circle cx="1746" cy="96.43" r="2.68" style="fill:#8677a0"/><circle cx="1716.89" cy="100.77" r="1.4" style="fill:#8677a0"/><circle cx="1742.81" cy="196.38" r="0.77" style="fill:#8677a0"/><circle cx="1226.94" cy="192.43" r="1.66" style="fill:#8677a0"/><circle cx="1301.87" cy="204.81" r="1.02" style="fill:#8677a0"/><circle cx="1832.81" cy="182.72" r="1.4" style="fill:#8677a0"/><circle cx="1169.49" cy="269.79" r="1.66" style="fill:#8677a0"/><circle cx="1149.57" cy="287.91" r="0.38" style="fill:#8677a0"/><circle cx="1106.55" cy="248.72" r="1.02" style="fill:#8677a0"/><circle cx="1287.06" cy="256.38" r="1.53" style="fill:#8677a0"/><circle cx="1890.38" cy="267.36" r="1.28" style="fill:#8677a0"/><circle cx="1868.04" cy="49.19" r="1.4" style="fill:#8677a0"/><circle cx="1869.06" cy="21.36" r="1.91" style="fill:#8677a0"/><circle cx="1914.13" cy="9.23" r="1.79" style="fill:#8677a0"/><circle cx="1772.04" cy="24.43" r="1.4" style="fill:#8677a0"/><circle cx="1917.45" cy="29.15" r="1.53" style="fill:#8677a0"/><circle cx="1212.51" cy="373.57" r="1.79" style="fill:#8677a0"/><circle cx="1347.06" cy="445.32" r="1.28" style="fill:#8677a0"/><circle cx="1322.17" cy="505.19" r="1.91" style="fill:#8677a0"/><circle cx="1220.68" cy="503.02" r="1.28" style="fill:#8677a0"/><circle cx="1113.7" cy="448.38" r="1.79" style="fill:#8677a0"/><circle cx="1182.25" cy="556.26" r="1.4" style="fill:#8677a0"/><circle cx="1077.45" cy="595.96" r="1.53" style="fill:#8677a0"/><circle cx="1419.06" cy="656.21" r="0.77" style="fill:#8677a0"/><circle cx="1421.74" cy="698.72" r="1.91" style="fill:#8677a0"/><circle cx="956.17" cy="524.21" r="2.55" style="fill:#8677a0"/><circle cx="982.3" cy="756.04" r="1.28" style="fill:#8677a0"/><circle cx="1489.28" cy="711.87" r="1.28" style="fill:#8677a0"/><circle cx="1514.43" cy="798.81" r="1.66" style="fill:#8677a0"/><circle cx="1373.87" cy="825.49" r="1.28" style="fill:#8677a0"/><circle cx="1315.02" cy="848.09" r="1.4" style="fill:#8677a0"/><circle cx="1433.87" cy="895.96" r="1.79" style="fill:#8677a0"/><circle cx="1505.62" cy="890.6" r="1.79" style="fill:#8677a0"/><circle cx="1540.6" cy="872.72" r="1.79" style="fill:#8677a0"/><circle cx="1657.91" cy="882.81" r="1.15" style="fill:#8677a0"/><circle cx="1653.96" cy="846.68" r="1.28" style="fill:#8677a0"/><circle cx="1764.51" cy="874.77" r="2.3" style="fill:#8677a0"/><circle cx="1688.68" cy="750.17" r="1.79" style="fill:#8677a0"/><circle cx="1765.53" cy="723.36" r="1.02" style="fill:#8677a0"/><circle cx="1764.13" cy="703.06" r="2.17" style="fill:#8677a0"/><circle cx="1773.45" cy="672.04" r="1.53" style="fill:#8677a0"/><circle cx="1883.15" cy="860.72" r="1.87" style="fill:#8677a0"/><circle cx="100.51" cy="632.81" r="2.38" style="fill:#8677a0"/><circle cx="26.3" cy="731.87" r="1.7" style="fill:#8677a0"/><circle cx="610.98" cy="440.47" r="4.09" style="fill:#8677a0"/><circle cx="811.57" cy="162.94" r="1.02" style="fill:#8677a0"/><circle cx="884.47" cy="115.32" r="2.17" style="fill:#8677a0"/><circle cx="768.55" cy="212.09" r="1.91" style="fill:#8677a0"/><circle cx="737.66" cy="202.38" r="1.66" style="fill:#8677a0"/><circle cx="743.91" cy="295.45" r="3.06" style="fill:#8677a0"/><circle cx="766.38" cy="355.7" r="1.02" style="fill:#8677a0"/><circle cx="407.62" cy="427.57" r="1.15" style="fill:#8677a0"/><circle cx="459.83" cy="450.94" r="1.53" style="fill:#8677a0"/><circle cx="422.55" cy="492.04" r="1.28" style="fill:#8677a0"/><circle cx="783.87" cy="432.68" r="2.17" style="fill:#8677a0"/><circle cx="724.51" cy="451.96" r="2.04" style="fill:#8677a0"/><circle cx="760.77" cy="499.96" r="2.04" style="fill:#8677a0"/><circle cx="401.74" cy="556.77" r="1.91" style="fill:#8677a0"/><circle cx="493.79" cy="532.64" r="2.55" style="fill:#8677a0"/><circle cx="483.19" cy="395.66" r="1.15" style="fill:#8677a0"/><circle cx="459.19" cy="328.51" r="1.15" style="fill:#8677a0"/><circle cx="517.53" cy="313.83" r="1.79" style="fill:#8677a0"/><circle cx="565.4" cy="289.19" r="1.4" style="fill:#8677a0"/><circle cx="562.21" cy="276.55" r="1.53" style="fill:#8677a0"/><circle cx="1033.7" cy="137.91" r="1.53" style="fill:#8677a0"/><circle cx="1007.79" cy="115.06" r="1.91" style="fill:#8677a0"/><circle cx="1166.72" cy="185.66" r="0.77" style="fill:#8677a0"/><circle cx="1140.3" cy="221.28" r="1.66" style="fill:#8677a0"/><circle cx="1215.23" cy="233.66" r="1.02" style="fill:#8677a0"/><circle cx="1256.72" cy="172" r="1.4" style="fill:#8677a0"/><circle cx="658.34" cy="374.72" r="1.66" style="fill:#8677a0"/><circle cx="638.43" cy="392.85" r="0.38" style="fill:#8677a0"/><circle cx="595.4" cy="353.66" r="1.02" style="fill:#8677a0"/><circle cx="1200.43" cy="285.23" r="1.53" style="fill:#8677a0"/><circle cx="810.13" cy="479.79" r="1.79" style="fill:#8677a0"/><circle cx="944.68" cy="551.53" r="1.28" style="fill:#8677a0"/><circle cx="919.79" cy="611.4" r="1.91" style="fill:#8677a0"/><circle cx="818.3" cy="609.23" r="1.28" style="fill:#8677a0"/><circle cx="602.55" cy="553.32" r="1.79" style="fill:#8677a0"/><circle cx="671.11" cy="661.19" r="1.4" style="fill:#8677a0"/><circle cx="566.3" cy="700.89" r="1.53" style="fill:#8677a0"/><circle cx="418.47" cy="721.57" r="0.77" style="fill:#8677a0"/><circle cx="421.15" cy="764.09" r="1.91" style="fill:#8677a0"/><circle cx="445.02" cy="629.15" r="2.55" style="fill:#8677a0"/><circle cx="721.96" cy="667.96" r="1.28" style="fill:#8677a0"/><circle cx="488.68" cy="777.23" r="1.28" style="fill:#8677a0"/><circle cx="938.34" cy="788.09" r="1.66" style="fill:#8677a0"/><circle cx="796.85" cy="816.81" r="1.79" style="fill:#8677a0"/><circle cx="873.7" cy="790" r="1.02" style="fill:#8677a0"/><circle cx="872.3" cy="769.7" r="2.17" style="fill:#8677a0"/><circle cx="881.62" cy="738.68" r="1.53" style="fill:#8677a0"/><circle cx="1066.98" cy="618.55" r="0.77" style="fill:#8677a0"/><circle cx="1069.66" cy="661.06" r="1.91" style="fill:#8677a0"/><circle cx="1137.19" cy="674.21" r="1.28" style="fill:#8677a0"/><circle cx="1162.34" cy="761.15" r="1.66" style="fill:#8677a0"/><circle cx="1021.79" cy="787.83" r="1.28" style="fill:#8677a0"/><circle cx="1301.87" cy="809.02" r="1.28" style="fill:#8677a0"/><circle cx="1336.6" cy="712.51" r="1.79" style="fill:#8677a0"/><circle cx="1413.45" cy="685.7" r="1.02" style="fill:#8677a0"/><circle cx="1412.04" cy="665.4" r="2.17" style="fill:#8677a0"/><circle cx="1421.36" cy="634.38" r="1.53" style="fill:#8677a0"/><circle cx="1378.21" cy="280.89" r="3.06" style="fill:#8677a0"/><circle cx="1400.68" cy="341.15" r="1.02" style="fill:#8677a0"/><circle cx="1466.43" cy="336.94" r="1.15" style="fill:#8677a0"/><circle cx="1518.64" cy="360.3" r="1.53" style="fill:#8677a0"/><circle cx="1481.36" cy="401.4" r="1.28" style="fill:#8677a0"/><circle cx="1418.17" cy="418.13" r="2.17" style="fill:#8677a0"/><circle cx="1532.51" cy="554.34" r="2.04" style="fill:#8677a0"/><circle cx="1395.06" cy="485.4" r="2.04" style="fill:#8677a0"/><circle cx="1460.55" cy="466.13" r="1.91" style="fill:#8677a0"/><circle cx="1506.89" cy="450.43" r="2.55" style="fill:#8677a0"/><circle cx="1542" cy="305.02" r="1.15" style="fill:#8677a0"/><circle cx="1518" cy="237.87" r="1.15" style="fill:#8677a0"/><circle cx="1576.34" cy="223.19" r="1.79" style="fill:#8677a0"/><circle cx="1849.53" cy="219.11" r="1.02" style="fill:#8677a0"/><circle cx="1717.15" cy="284.09" r="1.66" style="fill:#8677a0"/><circle cx="1697.23" cy="302.21" r="0.38" style="fill:#8677a0"/><circle cx="1654.21" cy="263.02" r="1.02" style="fill:#8677a0"/><circle cx="1834.72" cy="270.68" r="1.53" style="fill:#8677a0"/><circle cx="1760.17" cy="387.87" r="1.79" style="fill:#8677a0"/><circle cx="1894.72" cy="459.62" r="1.28" style="fill:#8677a0"/><circle cx="1869.83" cy="519.49" r="1.91" style="fill:#8677a0"/><circle cx="1768.34" cy="517.32" r="1.28" style="fill:#8677a0"/><circle cx="1661.36" cy="462.68" r="1.79" style="fill:#8677a0"/><circle cx="1729.91" cy="570.55" r="1.4" style="fill:#8677a0"/><circle cx="1503.83" cy="538.51" r="2.55" style="fill:#8677a0"/><circle cx="1316.21" cy="226.38" r="1.91" style="fill:#8677a0"/><circle cx="1291.57" cy="309.74" r="3.06" style="fill:#8677a0"/><circle cx="1314.04" cy="370" r="1.02" style="fill:#8677a0"/><circle cx="1331.53" cy="446.98" r="2.17" style="fill:#8677a0"/><circle cx="1272.17" cy="466.26" r="2.04" style="fill:#8677a0"/><circle cx="1308.43" cy="514.26" r="2.04" style="fill:#8677a0"/><circle cx="1687.96" cy="235.57" r="1.66" style="fill:#8677a0"/><circle cx="1762.89" cy="247.96" r="1.02" style="fill:#8677a0"/><circle cx="1748.09" cy="299.53" r="1.53" style="fill:#8677a0"/><circle cx="1357.79" cy="494.09" r="1.79" style="fill:#8677a0"/><circle cx="1492.34" cy="565.83" r="1.28" style="fill:#8677a0"/><circle cx="229.87" cy="981.11" r="1.15" style="fill:#8677a0"/><circle cx="277.74" cy="999.87" r="1.02" style="fill:#8677a0"/><circle cx="300.21" cy="1005.49" r="1.79" style="fill:#8677a0"/><circle cx="467.06" cy="1024.26" r="0.89" style="fill:#8677a0"/><circle cx="517.49" cy="1013.4" r="1.53" style="fill:#8677a0"/><circle cx="212.04" cy="1103.28" r="1.02" style="fill:#8677a0"/><circle cx="284.94" cy="1055.66" r="2.17" style="fill:#8677a0"/><circle cx="434.17" cy="1078.26" r="1.53" style="fill:#8677a0"/><circle cx="408.25" cy="1055.4" r="1.91" style="fill:#8677a0"/><circle cx="1499.06" cy="1023.49" r="1.15" style="fill:#8677a0"/><circle cx="1546.94" cy="1042.26" r="1.02" style="fill:#8677a0"/><circle cx="1569.4" cy="1047.87" r="1.79" style="fill:#8677a0"/><circle cx="1736.25" cy="1066.64" r="0.89" style="fill:#8677a0"/><circle cx="1786.68" cy="1055.79" r="1.53" style="fill:#8677a0"/><circle cx="1481.23" cy="1145.66" r="1.02" style="fill:#8677a0"/><circle cx="1554.13" cy="1098.04" r="2.17" style="fill:#8677a0"/><circle cx="1703.36" cy="1120.64" r="1.53" style="fill:#8677a0"/><circle cx="1677.45" cy="1097.79" r="1.91" style="fill:#8677a0"/><circle cx="1209.02" cy="939.74" r="1.15" style="fill:#8677a0"/><circle cx="1256.89" cy="958.51" r="1.02" style="fill:#8677a0"/><circle cx="1279.36" cy="964.13" r="1.79" style="fill:#8677a0"/><circle cx="1496.64" cy="972.04" r="1.53" style="fill:#8677a0"/><circle cx="89.83" cy="1115.53" r="1.15" style="fill:#8677a0"/><circle cx="137.7" cy="1134.3" r="1.02" style="fill:#8677a0"/><circle cx="160.17" cy="1139.91" r="1.79" style="fill:#8677a0"/><circle cx="377.45" cy="1147.83" r="1.53" style="fill:#8677a0"/><circle cx="72" cy="1237.7" r="1.02" style="fill:#8677a0"/><circle cx="144.89" cy="1190.09" r="2.17" style="fill:#8677a0"/><circle cx="569.7" cy="1027.57" r="1.15" style="fill:#8677a0"/><circle cx="617.57" cy="1046.34" r="1.02" style="fill:#8677a0"/><circle cx="640.04" cy="1051.96" r="1.79" style="fill:#8677a0"/><circle cx="806.89" cy="1070.72" r="0.89" style="fill:#8677a0"/><circle cx="857.32" cy="1059.87" r="1.53" style="fill:#8677a0"/><circle cx="551.87" cy="1149.74" r="1.02" style="fill:#8677a0"/><circle cx="624.77" cy="1102.13" r="2.17" style="fill:#8677a0"/><circle cx="748.08" cy="1101.87" r="1.91" style="fill:#8677a0"/><circle cx="1564.42" cy="1140.04" r="1.15" style="fill:#8677a0"/><circle cx="1612.3" cy="1158.81" r="1.02" style="fill:#8677a0"/><circle cx="1634.77" cy="1164.43" r="1.79" style="fill:#8677a0"/><circle cx="1801.62" cy="1183.19" r="0.89" style="fill:#8677a0"/><circle cx="1852.04" cy="1172.34" r="1.53" style="fill:#8677a0"/><circle cx="1546.6" cy="1262.21" r="1.02" style="fill:#8677a0"/><circle cx="1768.72" cy="1237.19" r="1.53" style="fill:#8677a0"/><circle cx="1742.81" cy="1214.34" r="1.91" style="fill:#8677a0"/><circle cx="1397.19" cy="1138.13" r="0.89" style="fill:#8677a0"/><circle cx="1447.62" cy="1127.28" r="1.53" style="fill:#8677a0"/><circle cx="1142.17" cy="1217.15" r="1.02" style="fill:#8677a0"/><circle cx="1364.3" cy="1192.13" r="1.53" style="fill:#8677a0"/><circle cx="1338.38" cy="1169.28" r="1.91" style="fill:#8677a0"/></g><g id="Calque_63" data-name="Calque 63"><path d="M545,1459.64a13,13,0,0,0-7.1-1l-14.24-15.93c8-1.4,11.81-1.69,11.81-1.69C543.81,1450.79,545,1459.64,545,1459.64Z" transform="translate(-0.06 0.91)" style="fill:#7880c0"/><path d="M528.36,1471.91c-1,3.83-.19,10-.19,10-24.57-3.7-25.4-7.6-25.4-7.6l.25-7.85A217.41,217.41,0,0,0,528.36,1471.91Z" transform="translate(-0.06 0.91)" style="fill:#7d86c2"/><path d="M556.51,1473a10.32,10.32,0,0,1-.45,5.36l4.87,0,.56-5.63Z" transform="translate(-0.06 0.91)" style="fill:#848bc4"/><path d="M545.28,1492.59a13.63,13.63,0,0,1-5.24.26c.83,4.34-1.53,10.4-1.53,10.4a10.58,10.58,0,0,0,6.07-.89A22.84,22.84,0,0,1,545.28,1492.59Z" transform="translate(-0.06 0.91)" style="fill:#7d87c3"/></g><g id="Calque_58" data-name="Calque 58"><path d="M544.66,1459.89c9.87,7.49,11.74,13.11,11.74,13.11l6.56-.17c0-16.19-8.82-25.08-15.92-29.61a26.12,26.12,0,0,0-16.85-4,15.28,15.28,0,0,0-2.3.38C543.47,1447.89,544.66,1459.89,544.66,1459.89Z" transform="translate(-0.06 0.91)" style="fill:#716db6"/></g><g id="Calque_59" data-name="Calque 59"><path d="M537.94,1458.7c-8.85,8.34-9.11,13.36-9.11,13.36-21.45-1-27.66-4.59-27.66-4.59,4.77-22.9,21.36-26.64,21.36-26.64C534.79,1445.68,537.94,1458.7,537.94,1458.7Z" transform="translate(-0.06 0.91)" style="fill:#9c84c1"/></g><g id="Calque_60" data-name="Calque 60"><path d="M527.89,1479.72c-14.63-.59-27.23-7.32-27.23-7.32a48.12,48.12,0,0,0,2.26,11.49,32.23,32.23,0,0,0,28.95,21.89c4.55.24,5.81-.61,5.81-.61,3.58-7.49,3-12,3-12-6.89-.26-11.57-7.58-11.57-7.58A23.89,23.89,0,0,1,527.89,1479.72Z" transform="translate(-0.06 0.91)" style="fill:#6065b4"/></g><g id="Calque_61" data-name="Calque 61"><path d="M556,1478.7c-2.64,10.81-11.15,14-11.15,14a24.49,24.49,0,0,0,0,11.32c16.42-10.22,17-26,17-26l-5.87.17Z" transform="translate(-0.06 0.91)" style="fill:#5f65b4"/></g><g id="Calque_64" data-name="Calque 64"><ellipse cx="542.17" cy="1476.93" rx="15.62" ry="18.26" style="fill:#878fc7"/></g><g id="Calque_62" data-name="Calque 62"><ellipse cx="543.32" cy="1477.33" rx="5.55" ry="6.35" style="fill:#faf9fd"/></g></svg>