<svg id="Calque_1" data-name="Calque 1" xmlns="http://www.w3.org/2000/svg" viewBox="0 0 1920.18 562.18"><path d="M1785.21,474.82c-31.82,22.47-62.09,31.54-74.23,35.64-65.79,22.22-123.55,19.17-156.31,14.89-40.51-9-121.27-21-216.29,6.16a439.46,439.46,0,0,0-150.09,76.59S1100,691.79,995.2,698.68h0c-5.24.34-10.53.5-15.85.43H940.86a208.19,208.19,0,0,1-24.55-1.19c-1-.08-1.8-.17-2.47-.27h0C814,685.91,731.88,608.1,731.88,608.1A491.52,491.52,0,0,0,581.8,531.51c-102.62-31.6-191.11-21.64-237.68-12.88C316.65,522,227,529.64,135,474.82,47.21,422.53,10.88,345.35-.09,319.21V881.4H1920.09V319.51C1916.38,325.64,1855.56,425.12,1785.21,474.82Z" transform="translate(0.09 -319.21)" style="fill:#1e2663"/></svg>