<svg id="Calque_1" data-name="Calque 1" xmlns="http://www.w3.org/2000/svg" viewBox="0 0 120.57 111.47"><path d="M184.42,278.68c-19.11-5.39-30-2.66-30-2.66-2.79-6.81-2.59-7.5-2.59-7.5C182.66,269.65,184.42,278.68,184.42,278.68Z" transform="translate(-82.86 -224.52)" style="fill:#3e4595"/><path d="M132.78,299.16a15.69,15.69,0,0,0,0,4.37l-.07,1.7-43.8-7.67-1.08-3c-.19-6.21-.32-9.21-.32-9.21,30.83,11.17,45.33,12.48,45.33,12.48Z" transform="translate(-82.86 -224.52)" style="fill:#575db1"/><path d="M145.39,267c-5.75,3.2-7.58,7.25-7.58,7.25C110.7,256.69,103.32,253,103.32,253c.24.62.34.67.34.67s-4.27.25,1.54-1.84,7.07-1.32,7.07-1.32C142.77,258.26,145.39,267,145.39,267Z" transform="translate(-82.86 -224.52)" style="fill:#404797"/><path d="M145.16,257.41c20-3.36,31.25,2.25,35.57,5.19a12.14,12.14,0,0,1,3.16,3.11c3.15,4.54,3.93,8,4,10.24a2.79,2.79,0,0,1-4,2.62,9.63,9.63,0,0,1-1.17-.71c-13.59-7.38-29.33-5.42-29.33-5.42C149.66,264.93,145.16,257.41,145.16,257.41Z" transform="translate(-82.86 -224.52)" style="fill:#7078ba"/><path d="M138.79,274.53c-16.27-20-37.24-22.93-37.24-22.93C81,266.69,84.3,286.09,84.3,286.09c29.21,14.5,49.59,12.94,49.59,12.94C136,277.67,138.79,274.53,138.79,274.53Z" transform="translate(-82.86 -224.52)" style="fill:#aa9ebe"/><path d="M133.1,303.6c-16.2,1.18-48.35-11.92-48.35-11.92a28.26,28.26,0,0,0,1.92,8.73c.14.36.27.73.39,1.09,8.3,25.83,32.72,23.14,32.72,23.14,15.28.39,22.41-8.76,22.41-8.76C133.57,310.26,133.1,303.6,133.1,303.6Z" transform="translate(-82.86 -224.52)" style="fill:#555da5"/><path d="M145.06,268.06c-10.39-13-28.71-15.68-28.71-15.68-4.8-.88-8.85-1.86-8.85-1.86,14.6-7,26.39-2.15,26.39-2.15a31.33,31.33,0,0,1,19,22.7C148.42,267.93,145.06,268.06,145.06,268.06Z" transform="translate(-82.86 -224.52)" style="fill:#8580b2"/><path d="M115.27,298.78l-19.75-4.62C80.73,304.84,83,311.7,83,311.7c3.92,17.44,28.42,22.54,28.42,22.54,16.95,2.55,19.79,1.57,19.79,1.57,2.16-2.36-.39-4.41-.39-4.41C108,325.91,109.49,313,109.49,313c0-2.88,2.89-5.19,4.07-8.38C114.4,302.36,115.27,298.78,115.27,298.78Z" transform="translate(-82.86 -224.52)" style="fill:#404796"/><path d="M158.71,240.43c-12-2.68-18.09,3-18.09,3a17.91,17.91,0,0,0-4.18,16.89A44.21,44.21,0,0,1,129,264.8c-5.16-12.48-1.4-21.56-1.4-21.56,14.43-11,27.83-9.21,27.83-9.21A10.23,10.23,0,0,1,158.71,240.43Z" transform="translate(-82.86 -224.52)" style="fill:#5258a1"/><path d="M131.86,289.42c-1.37,13.71,3.51,26.78,10.19,26.58,5.75-.17,12.52-10.46,13.89-24.17s-2.91-25.36-9.56-26S133.23,275.71,131.86,289.42Z" transform="translate(-82.86 -224.52)" style="fill:#6068ab"/><ellipse cx="143.06" cy="290.88" rx="19.04" ry="8.34" transform="translate(-239.05 190.97) rotate(-86.42)" style="fill:#7b83c0"/><path d="M202.66,298.66c-17.49-10.87-27.75-12.9-32.84-13a7.06,7.06,0,0,0-6,3.3c-3.91,6.15-3.9,11-3.05,14.14a6.42,6.42,0,0,0,5.56,4.68,70.87,70.87,0,0,0,36.19-6.29A1.64,1.64,0,0,0,202.66,298.66Z" transform="translate(-82.86 -224.52)" style="fill:#181f4c"/><ellipse cx="144.95" cy="291.4" rx="12.19" ry="6.58" transform="translate(-242.37 181.89) rotate(-84.25)" style="fill:#3f4495"/><path d="M141,282.56a18.89,18.89,0,0,0-1.5,17c6.86.1,7.36-7.33,7.36-7.33C147.51,285.9,141,282.56,141,282.56Z" transform="translate(-82.86 -224.52)" style="fill:#fdfdfe"/><path d="M127.91,263.85C113.21,254.15,108,253.3,108,253.3c1.45-14.28,8.44-21.36,15.33-25.14,9.51-5.22,21.06-4.69,30.5.67a35.25,35.25,0,0,1,8.08,6.24,3.54,3.54,0,0,1,1,2.27c.07,2.3-2.33,2.89-3.56,3a2.07,2.07,0,0,1-1.22-.24c-9.67-5.16-17.71-1.28-17.71-1.28-15,8.92-13.13,18.72-13.13,18.72a17.24,17.24,0,0,0,1.67,7.15Z" transform="translate(-82.86 -224.52)" style="fill:#c0c7e7"/><path d="M114.29,298.54l-17.83-6.27C81.66,303,83.91,309.81,83.91,309.81c3,13.49,18.39,19.6,25.18,21.67a35,35,0,0,0,5.26,1.16c10,1.43,14.51,1.53,16.46,1.43a2.24,2.24,0,0,0,2.16-2.44,2.93,2.93,0,0,0-.05-.29,3,3,0,0,0-2.19-2.09c-21.84-5.63-22-18.46-22-18.46C108.7,305.4,114.29,298.54,114.29,298.54Z" transform="translate(-82.86 -224.52)" style="fill:#8c94c8"/></svg>