<?xml version="1.0" encoding="utf-8"?>
<!-- Generator: Adobe Illustrator 25.4.1, SVG Export Plug-In . SVG Version: 6.00 Build 0)  -->
<svg version="1.1" id="Calque_1" xmlns="http://www.w3.org/2000/svg" xmlns:xlink="http://www.w3.org/1999/xlink" x="0px" y="0px"
	 viewBox="0 0 864.6 317.6" style="enable-background:new 0 0 864.6 317.6;" xml:space="preserve">
<style type="text/css">
	.st0{fill:#CAC9C9;}
	.st1{fill:#FFFFFF;}
	.st2{fill:#FFFFFF;stroke:#1D1D1B;stroke-width:0.25;stroke-miterlimit:10;}
</style>
<g id="Calque_2_00000093147247523832254040000003297904968944926130_">
	<path class="st0" d="M864.6,19.1v51.4c-0.8,1.1-1.6,2.1-2.5,3.1c-1.7,1.9-3.5,3.7-5.6,5.3c1.7,5.6,2.5,11.4,2.5,17.2
		c0,7.7-1.4,15-4,21.8v0c-8.6,22.3-29.9,39-55.8,42c0,0,0,0,0,0c0,0,0,0,0,0H799c-2.8,0.3-5.5,0.5-8.4,0.5
		c-11.7,0-23.1-2.8-33.3-8.1c-11.2,24.5-41,36.1-67,25.9c0.1,1.2,0.2,2.5,0.2,3.7c0,25.8-22.2,46.7-49.7,46.7
		c-7.4,0-14.5-1.5-20.9-4.3c-0.2-0.1-0.4-0.2-0.7-0.3c0,0,0,0,0,0c-10.1-4.6-18.5-12.4-23.5-22.5c-18.9,19.1-50.6,19.9-70.6,1.9
		c-2.9-2.6-5.4-5.5-7.6-8.6c-15.9,12.7-38.3,15.3-56.9,6.6c-8.1,21-30.9,32.7-53.3,28.7c0,0,0,0,0,0c-2.5-0.4-5.1-1.1-7.6-2
		c-5.6-2-10.8-4.9-15.2-8.7c0,0,0,0,0,0c-2.8-2.3-5.2-5-7.4-7.9c-13.6,9.1-30.6,10.2-44.7,4.1c-4.5-1.9-8.6-4.5-12.3-7.8
		c-0.7-0.6-1.3-1.2-1.9-1.9c-1.4-1.4-2.6-2.9-3.8-4.5c-1-1.4-2-2.8-2.9-4.3c-0.3-0.5-0.5-1-0.8-1.5c-0.2-0.4-0.4-0.8-0.6-1.1
		c0,0.4-0.1,0.8-0.2,1.1c-0.1,0.6-0.2,1.2-0.3,1.9c-0.8,3.9-2.3,7.6-4.2,11c-0.4,0.7-0.9,1.4-1.3,2.1c-3.4,5.1-8.1,9.3-13.6,12.3
		l0,0c-7.2,4-15.7,5.8-24.6,4.8c-0.6-0.1-1.3-0.2-1.9-0.2h0c-6.5-1-12.3-3.5-17.3-7c-2.9-2.1-5.5-4.5-7.8-7.3
		c-2.6-3.2-4.7-6.9-6.1-10.8c-0.2-0.6-0.4-1.2-0.6-1.9v0c-0.1-0.2-0.1-0.4-0.2-0.6c-0.1-0.4-0.2-0.9-0.3-1.3
		c-0.4-1.8-0.7-3.6-0.9-5.5c0-0.4-0.1-0.8-0.1-1.2c0-0.2,0-0.5,0-0.7c0-0.3,0-0.6,0-0.8v-2c-0.4,0.3-0.9,0.6-1.3,0.8
		c-1.1,0.7-2.2,1.3-3.4,1.9c-0.8,0.4-1.6,0.8-2.5,1.2l0,0c-1.9,0.8-3.9,1.6-5.8,2.2c-3.3,1-6.7,1.6-10.1,1.9
		c-0.9,0.1-1.8,0.1-2.7,0.1c0,0,0,0,0,0c-2.1,0-4.1,0-6.2-0.2c-0.1,0-0.1,0-0.2,0c-3-0.3-6-0.9-8.9-1.8c0.8,1.7,1.5,3.4,2,5.1
		c1.1,3.4,1.6,7,1.6,10.6v0.2c0,2.5-0.3,4.9-0.8,7.2c-3.9,17.9-20.6,31.2-40.5,30.8c-12.8-0.2-24.2-6-31.5-15
		c-3.9-4.8-6.6-10.4-7.8-16.5c-0.4-2.1-0.7-4.3-0.7-6.5c0-0.8,0-1.5,0.1-2.3h-0.1c-12.9,0-24.8-5.8-32.4-15.2
		c-0.1-0.1-0.1-0.1-0.2-0.2c-2.2-2.8-4-5.8-5.4-9.1c-20.8,15-50.5,11.2-66.3-8.5c-0.2-0.2-0.3-0.4-0.5-0.6c-1.7-2.2-3.1-4.5-4.4-6.9
		v-38.8c0.2-0.4,0.4-0.8,0.6-1.1c-0.2,0-0.4-0.1-0.6-0.2v-84c3.9-1,8-1.5,12.3-1.5h0c15.8,0,30.5,7.6,39.1,20.2
		c17.3-2.8,33.9,6.6,40,21.6c0.8,2.1,1.5,4.3,1.9,6.6c2.2,12-2.5,24.2-12.4,32.1c3.3,4.4,5.8,9.3,7.2,14.5c0.4-0.2,0.9-0.5,1.3-0.7
		c19.1-10,43.3-3.9,54.7,14c1.1,1.8,2.1,3.6,2.8,5.4c1.9,4.4,2.9,9.2,3,14c0,0.8,0,1.5-0.1,2.3h0.1c1.6,0,3.2,0.1,4.8,0.3
		c1.9,0.2,3.7,0.5,5.5,1c-3.5-6.3-5.4-13.3-5.4-20.4c0-24.3,20.8-44.1,46.4-44.1c19.3,0,35.8,11.2,42.8,27.1
		c2.3,5.2,3.6,10.9,3.6,17c0,1.8-0.1,3.7-0.4,5.5c1.7-1,3.5-1.8,5.3-2.5c18.1-7.2,39.4-0.9,49.8,15.5c0.6,0.9,1.1,1.9,1.6,2.8
		c2.2-23.5,24-40.8,48.7-38.7c12.5,1.1,23.9,7,31.6,16.5c13.3-9.9,31.1-12.5,46.8-6.6c6-19.1,26.2-29.3,50.2-29.3
		c18.6,0,34.9,6,44.1,17.6c21.4-16.5,52.8-13.4,70.2,6.9c2.5,3,4.7,6.2,6.4,9.6c14-14,35.5-18.6,54.5-11.6c-0.2-1.6-0.2-3.2-0.2-4.8
		c0-26.7,23-48.2,51.3-48.2c4.4,0,8.7,0.5,12.9,1.5c4.4-28,27.4-50,56.9-54.4c5.9-19.3,24.6-32.6,45.8-32.6
		C841.8-0.1,856,7.5,864.6,19.1z"/>
	<path class="st0" d="M2.4,127.3v1.3v6v32.7v128.3h141.2h18.2h8.7h13.6h491.1h2.2h184.6V121.9V88.3v-0.6V73.6V49.8V35.6l-50.5,48.2
		l-4.5,4.3l-16.4,15.7l-43.5,22l-0.3,0.2l-4,2l-2,1l-38.2,19.3l-23,10.8l-0.2,0.1l-4.3,2.1l-0.2,0.1l-34.2,16.1l-84.7-5.4l-6,0.9
		l-6.9,1l-1.4,0.2l-6.7,1l-47.5,6.9l-52.1,8.4h-66.8l-39,4.4l-7.4,0.8l-8.1,0.9l-2.9,0.6l-1.9,0.4l-46.5,9.1l-15.9-6.6l-3.2-1.3
		l-2.3-0.9l-0.2-0.1l-0.3-0.1h0l-5.7-2.3l-5-2.1l-1.4-0.6c0,0,0,0,0,0l-2-0.8h0l-1.4-0.6l-3-1.2l-13.1-5.4h0l-6.1-2.5l-51.3,24.6
		l-46.4-29.2l-11.6-6.1l-7.3-3.8l-1.8-1l-6.9-3.7l-33.5-17.6l-42.4-27v5.6V127.3z"/>
	<polygon class="st0" points="336.4,204.8 324.6,186.5 292.3,186.5 250.4,178.3 202.6,185.5 190.2,217.1 229.9,223.2 	"/>
	<path class="st0" d="M751.3,132.1c0,0-19.5-2.8-26.3-40.8L751.3,132.1z"/>
	<path class="st0" d="M790.1,150.7c0,0,53.8,5.1,60.9-42.9L790.1,150.7z"/>
	<path class="st0" d="M784.1,51.6c0,0,1.1,30.2,27.1,28.5L784.1,51.6z"/>
	<path class="st0" d="M661.1,138.4c12.9,7.4,21,20.5,21.5,34.8L661.1,138.4z"/>
	<path class="st0" d="M538.9,145.8c0,0,16.3,20.5-5.6,44.5L538.9,145.8z"/>
	<path class="st0" d="M437.7,145.1c0,0,15.9,4.6,24.8,22.9L437.7,145.1z"/>
	<path class="st0" d="M422,229.9c0,0-41.7,6.6-43.8-27.7L422,229.9z"/>
	<path class="st0" d="M391.3,151.8c0,0,9.5,11.2,8.8,22.4L391.3,151.8z"/>
	<path class="st0" d="M236.7,188.3c0,0-21.8,15.5-42.6,4.6L236.7,188.3z"/>
	<path class="st0" d="M238.6,179.6c0,0-11.5,26.4,9.9,35.3L238.6,179.6z"/>
	<path class="st0" d="M98,136.8c0,0-30.4,16.9-16.7,46.5L98,136.8z"/>
	<path class="st0" d="M30.5,114.5c19.1-13,39.2,2.5,39.2,2.5L30.5,114.5z"/>
	<path class="st0" d="M66.9,75.4c0,0,10.2,22.1-9.4,34.8L66.9,75.4z"/>
	<path class="st0" d="M596.6,256.6c1.5-14.3,10.5-26.8,23.9-33.4L596.6,256.6z"/>
	<path class="st0" d="M682.8,251.9c2.3,14.2-3,28.5-14.2,38.1L682.8,251.9z"/>
	<path class="st0" d="M831.1,231.1c0,0-53.9,2.7-53.4,51.2L831.1,231.1z"/>
	<path class="st0" d="M53.5,224.5c19.1-13,39.2,2.6,39.2,2.6L53.5,224.5z"/>
	<path class="st0" d="M35.7,276.4c-15.6-16.7-1.4-37.3-1.4-37.3L35.7,276.4z"/>
	<path class="st1" d="M864.6,22.1v63.4c-0.8,0.8-1.7,1.5-2.5,2.2c0,0-0.1,0.1-0.1,0.1c0,0.1,0.1,0.3,0.1,0.5
		c1.6,5.5,2.4,11.1,2.4,16.8c0,5.8-0.8,11.4-2.4,16.8c-7.8,27.4-34.4,47.5-66.1,47.5c-11.6,0-23.1-2.7-33.2-8
		c-11.2,24.5-41,36.1-67,25.9c0.1,1.2,0.2,2.5,0.2,3.7c0,25.8-22.2,46.7-49.7,46.7c-7.4,0-14.6-1.5-21.1-4.4
		c-0.2-0.1-0.4-0.2-0.6-0.3h0c-2.7-1.2-5.3-2.7-7.8-4.4c-0.8-0.5-1.5-1.1-2.3-1.7c-5.5-4.3-10.1-9.9-13.3-16.3
		c-18.9,19.1-50.6,19.9-70.6,1.9c-2.9-2.6-5.4-5.5-7.6-8.6c-15.9,12.7-38.3,15.3-57,6.6c-9.1,23.3-36.3,35.3-60.9,26.7
		c-9.1-3.2-17-9-22.6-16.6c-17.9,12.1-41.8,10-57.1-3.9c-2.1-1.9-4-4-5.7-6.2c-0.6-0.8-1.2-1.6-1.7-2.5c-0.4-0.6-0.8-1.3-1.2-2
		c-0.5-0.8-0.9-1.7-1.4-2.6c-0.1,1-0.3,2-0.5,3c-0.1,0.8-0.3,1.5-0.5,2.2c-1.1,3.9-2.8,7.6-5,10.8c-8,11.8-22.6,19-38.3,17.2
		c-7.2-0.8-13.8-3.4-19.2-7.3c-3.3-2.4-6.3-5.2-8.7-8.5c-1.8-2.4-3.3-5-4.5-7.8c-1.5-3.5-2.4-7.2-2.7-11c0-0.4-0.1-0.8-0.1-1.2
		c0-0.5-0.1-1-0.1-1.5v-0.1c0-0.4,0-0.8,0-1.2c0-0.2,0-0.4,0-0.7c-0.1,0.1-0.2,0.1-0.3,0.2c-0.3,0.2-0.6,0.4-1,0.6
		c-0.9,0.6-1.9,1.2-2.9,1.7c-0.2,0.1-0.4,0.2-0.5,0.3c-6.5,3.4-13.8,5.2-21.1,5.3c-2.1,0-4.3,0-6.4-0.3c-2.8-0.3-5.6-0.8-8.3-1.6
		c-0.2-0.1-0.5-0.1-0.7-0.2c0.1,0.3,0.3,0.6,0.4,0.9c2,4.5,3.1,9.2,3.2,14.1c0,0.1,0,0.2,0,0.4v0.5c0,2.5-0.3,4.9-0.8,7.2
		c-3.8,17.9-20.6,31.2-40.5,30.9c-16.8-0.2-31.1-10.1-37-24.1c-1.9-4.3-2.9-9-3-14c0-0.8,0-1.5,0.1-2.3H117c-1.6,0-3.2-0.1-4.8-0.3
		c-14.7-1.6-27.5-10.8-33-24c0-0.1-0.1-0.2-0.1-0.3c0,0,0,0-0.1,0c-20.8,15-50.4,11.2-66.3-8.5c-2.4-3-4.4-6.3-5.9-9.7
		c-2.4-5.4-3.7-11.1-3.8-17c0-7.2,1.9-14.3,5.4-20.7c-2.1-0.5-4.1-1.1-6-1.9V54.1c5.5-2.1,11.5-3.3,17.7-3.3h0
		c15.8,0,30.5,7.6,39.1,20.2c13.5-2.2,26.6,3,34.5,12.6c3.7,4.4,6.2,9.7,7.3,15.6c2.2,12-2.5,24.2-12.4,32.1
		c1.2,1.5,2.2,3.1,3.2,4.8c0.7,1.2,1.3,2.4,1.9,3.6c0.6,1.4,1.2,2.9,1.7,4.3v0c0.2,0.6,0.4,1.2,0.5,1.8c18-10.3,41-5.8,53.4,9.7
		c0.9,1.1,1.8,2.3,2.6,3.6c2.5,4,4.3,8.4,5.2,13c0.4,2.1,0.6,4.3,0.7,6.5c0,0.8,0,1.5-0.1,2.3h0.1c3.5,0,6.9,0.4,10.2,1.2
		c-3.5-6.3-5.4-13.3-5.4-20.4c0-24.3,20.8-44.1,46.4-44.1c15.4,0,29,7.1,37.5,18.1c4.4,5.7,7.4,12.5,8.5,19.9c0.3,2,0.4,4,0.4,6.1
		c0,1.8-0.1,3.6-0.4,5.5c19-10.8,43.6-5,55.1,13c0.6,0.9,1.1,1.8,1.6,2.8c2.2-23.5,24-40.8,48.7-38.7c12.5,1.1,23.9,7,31.6,16.5
		c0.7-0.6,1.5-1.1,2.2-1.6c0.5-0.3,1-0.6,1.5-0.9c12.8-7.8,28.8-9.4,43.2-4.1c0.6-2,1.4-4,2.4-5.8c0.2-0.5,0.5-1,0.8-1.5
		c8.3-14.4,26.3-22,47.1-22c18.6,0,34.9,6,44.1,17.6c21.4-16.5,52.8-13.5,70.2,6.9c2.5,2.9,4.7,6.2,6.4,9.6
		c14-14.1,35.5-18.7,54.5-11.7c-0.1-1.3-0.2-2.6-0.2-4c0,0,0,0,0,0c0-0.3,0-0.5,0-0.8c0-0.8,0-1.5,0.1-2.2v0
		c1.3-25.6,23.7-46,51.2-46c3.5,0,6.9,0.3,10.3,1c0.7,0.1,1.4,0.3,2.1,0.5c0.2,0,0.3,0.1,0.5,0.1c4.4-28,27.4-50,56.9-54.4
		c7.4-24,33.9-37.8,59.2-30.7C852.2,13,859.1,16.9,864.6,22.1z"/>
	<path class="st1" d="M864.6,47.4v257.4H2.4V123.6h0v0l47.8,30.5l27.5,14.5l0,0l5.9,3.1l1.5,0.8l7.3,3.8l18.9,9.9l46.4,29.2
		l33.6-16.1l6.9-3.3l0.3-0.1l1.4-0.7l8.1-3.9l1.1-0.5l0.8,0.3l5.3,2.2h0l2.3,0.9l2.8,1.2l8,3.3l3,1.3l0.7,0.3h0v0l2.6,1.1
		c0,0,0,0,0,0l1.5,0.6l0.6,0.2l4.3,1.8l0,0l5.2,2.1l3.2,1.3h0l19.1,7.9l36.8-7.2h0l9.7-1.9h0l1.9-0.4l1.2-0.2h0l1.7-0.3l15.5-1.7h0
		l0.4,0h0l38.7-4.4h66.8l52.1-8.4L534,185l4-0.6l2.6-0.4h0l8-1.2l12.9-1.9l84.7,5.4l34.3-16.1l0.2-0.1h0l1.6-0.7l0,0l2.6-1.2
		l23.3-10.9l40.2-20.3l4.3-2.2l43.5-22l66-63h0v0L864.6,47.4z"/>
	<polygon class="st1" points="341.8,213.9 329.9,195.5 297.7,195.5 255.8,187.3 208,194.5 195.5,226.1 235.3,232.3 	"/>
	<path class="st2" d="M756.7,141.2c0,0-19.5-2.8-26.3-40.8"/>
	<path class="st2" d="M795.5,159.8c0,0,53.8,5.1,60.9-42.9"/>
	<path class="st2" d="M789.5,60.6c0,0,1.1,30.2,27.1,28.5"/>
	<path class="st2" d="M666.4,147.4c12.9,7.4,21,20.5,21.5,34.9"/>
	<path class="st2" d="M544.3,154.8c0,0,16.3,20.5-5.6,44.5"/>
	<path class="st2" d="M443.1,154.2c0,0,15.9,4.6,24.8,22.9"/>
	<path class="st2" d="M396.7,160.8c0,0,9.5,11.2,8.8,22.4"/>
	<path class="st2" d="M242.1,197.4c0,0-21.8,15.5-42.6,4.6"/>
	<path class="st2" d="M244,188.7c0,0-11.5,26.4,9.9,35.3"/>
	<path class="st2" d="M103.4,145.9c0,0-30.4,16.9-16.7,46.5"/>
	<path class="st2" d="M35.9,123.5c19.1-13,39.2,2.5,39.2,2.5"/>
	<path class="st2" d="M72.3,84.5c0,0,10.2,22.1-9.4,34.8"/>
	<path class="st2" d="M602,265.7c1.5-14.2,10.5-26.8,23.9-33.4"/>
	<path class="st2" d="M688.2,261c2.3,14.1-3,28.5-14.2,38.1"/>
	<path class="st2" d="M836.5,240.2c0,0-53.9,2.7-53.4,51.2"/>
	<path class="st2" d="M58.8,233.6c19.1-13,39.2,2.6,39.2,2.6"/>
	<path class="st2" d="M41.1,285.4c-15.6-16.7-1.4-37.3-1.4-37.3"/>
</g>
</svg>
